<svg width="129" height="40" viewBox="0 0 129 40" xmlns="http://www.w3.org/2000/svg"><title>embracer-logo-white</title><g fill="none" fill-rule="evenodd"><path d="m66.94.29 4.22.014a.723.723 0 0 1 .694.522l4.8 16.772a.721.721 0 0 1-.695.918H72.67a.723.723 0 0 1-.706-.564L69.066 4.87l-1.928 9.265a.723.723 0 0 1-.708.574h-3.046a.721.721 0 0 1-.698-.91L66.24.82a.722.722 0 0 1 .7-.53M84.635 18.83c3.508 0 5.078-2.22 5.975-4.297a.72.72 0 0 0-.382-.947l-2.313-.98a.724.724 0 0 0-.944.371c-.502 1.138-1.407 1.95-2.583 1.95-2.246 0-3.534-2.319-3.534-5.512 0-3.193 1.288-5.513 3.534-5.513 1.155 0 2.038.718 2.566 1.795.169.345.58.496.933.345l2.302-.984a.719.719 0 0 0 .373-.964C89.607 2.054 87.862 0 84.388 0c-4.958 0-8.054 3.847-8.054 9.415 0 5.54 3.343 9.415 8.3 9.415M11.998 17.782v-2.407a.721.721 0 0 0-.723-.72H5.423v-3.467h5.66c.4 0 .723-.322.723-.72V8.061a.722.722 0 0 0-.723-.72h-5.66V4.147h5.852c.4 0 .723-.323.723-.72V1.02a.722.722 0 0 0-.723-.722H1.708c-.4 0-.724.323-.724.722v16.76c0 .398.325.72.724.72h9.567c.4 0 .723-.322.723-.72M31.809 17.782V1.26c0-.53-.432-.96-.964-.96h-4.182a.965.965 0 0 0-.912.649l-2.9 8.438L19.977.952a.963.963 0 0 0-.913-.653h-4.476c-.399 0-.722.323-.722.722v16.76c0 .398.323.72.722.72h2.992c.4 0 .723-.322.723-.72V7.696l2.295 6.378c.137.381.5.636.908.636h2.842c.304 0 .577-.19.68-.476l2.37-6.538v10.087c0 .397.324.72.724.72h2.964c.4 0 .723-.323.723-.72M44.29 9.115c1.726-.41 3.013-1.911 3.013-4.175 0-2.348-1.534-4.64-4.986-4.64h-7.604c-.4 0-.724.322-.724.72v16.762c0 .397.324.72.724.72h7.878c3.452 0 5.014-2.265 5.014-4.94 0-2.264-1.425-4.148-3.315-4.447Zm-5.863-5.022h2.795c1.035 0 1.584.683 1.56 1.701a1.618 1.618 0 0 1-1.622 1.574h-2.733V4.093Zm2.931 10.616h-2.93v-3.547h2.93c1.097 0 1.727.736 1.727 1.773 0 1.146-.63 1.774-1.727 1.774ZM55.885 8.405h-2.328V4.148h2.328c1.178 0 2.027.792 2.027 2.128 0 1.338-.849 2.129-2.027 2.129m6.213 9.087-2.651-6.03c1.37-.601 2.959-2.156 2.959-5.24C62.406 2.865 60.132.3 56.57.3h-6.73c-.399 0-.722.322-.722.72v16.762c0 .397.323.72.723.72h2.991c.4 0 .724-.323.724-.72v-5.529H55.2l2.233 5.787c.108.279.376.462.675.462h3.328a.72.72 0 0 0 .662-1.01M12.974 40c2.7 0 4.736-1.054 6.34-2.744a.955.955 0 0 0 .261-.659v-6.52a.722.722 0 0 0-.723-.72H13.15c-.4 0-.723.322-.723.72v2.435c0 .397.323.72.723.72h2.262v1.993c-.492.49-1.424.873-2.437.873-2.055 0-3.535-1.884-3.535-5.513 0-3.63 1.48-5.513 3.535-5.513 1.157 0 1.995.73 2.498 1.664a.72.72 0 0 0 .927.308l2.306-1.027a.721.721 0 0 0 .356-.973c-1.034-2.13-2.989-3.874-6.087-3.874-4.849 0-8.054 3.712-8.054 9.415C4.92 36.26 8.125 40 12.974 40M43.316 21.17c-4.931 0-7.972 3.929-7.972 9.415 0 5.485 3.04 9.415 7.972 9.415 4.931 0 7.972-3.93 7.972-9.415 0-5.486-3.04-9.415-7.972-9.415m0 14.928c-2.218 0-3.451-2.374-3.451-5.513 0-3.165 1.233-5.513 3.451-5.513 2.247 0 3.48 2.348 3.48 5.513 0 3.139-1.233 5.513-3.48 5.513M59.701 40c4.356 0 7.15-2.483 7.15-6.795V22.19a.722.722 0 0 0-.723-.721h-3.02a.722.722 0 0 0-.722.721v11.04c0 1.83-.959 2.894-2.685 2.894-1.753 0-2.712-1.065-2.712-2.893v-11.04a.721.721 0 0 0-.723-.722h-3.019c-.4 0-.723.322-.723.721v11.014c0 4.312 2.821 6.795 7.177 6.795M76.064 21.47h-6.619c-.4 0-.723.323-.723.72v16.762c0 .398.324.72.723.72h2.992c.4 0 .723-.322.723-.72v-5.529h2.904c3.972 0 5.944-2.756 5.944-5.949 0-3.22-1.972-6.004-5.944-6.004m-.548 8.105H73.16v-4.257h2.356c1.178 0 2 .79 2 2.128 0 1.337-.822 2.13-2 2.13M27.983 29.59h-2.328v-4.258h2.328c1.178 0 2.027.792 2.027 2.128 0 1.338-.85 2.13-2.027 2.13m6.213 9.087-2.652-6.032c1.37-.6 2.96-2.155 2.96-5.24 0-3.356-2.274-5.921-5.835-5.921h-6.73c-.4 0-.723.322-.723.72v16.762c0 .397.324.72.723.72h2.992c.4 0 .724-.323.724-.72v-5.529h1.643l2.233 5.787c.107.28.376.462.675.462h3.328a.72.72 0 0 0 .662-1.01M103.183 17.782v-2.407a.722.722 0 0 0-.724-.72h-5.851v-3.467h5.66c.399 0 .722-.322.722-.72V8.061a.722.722 0 0 0-.722-.72h-5.66V4.147h5.851c.4 0 .724-.323.724-.72V1.02a.722.722 0 0 0-.724-.722h-9.566c-.4 0-.724.323-.724.722v16.76c0 .398.325.72.724.72h9.566c.4 0 .724-.322.724-.72M111.662 8.405h-2.328V4.148h2.328c1.177 0 2.026.792 2.026 2.128 0 1.338-.849 2.129-2.026 2.129m6.213 9.087-2.652-6.03c1.37-.601 2.96-2.156 2.96-5.24 0-3.357-2.275-5.922-5.836-5.922h-6.729c-.4 0-.723.322-.723.72v16.762c0 .397.323.72.723.72h2.992c.399 0 .724-.323.724-.72v-5.529h1.643l2.233 5.787c.107.279.375.462.674.462h3.328a.72.72 0 0 0 .663-1.01" fill="#1f2937"/><path d="M127.774 3.061h-2.27V.797a.498.498 0 0 0-.499-.497h-1.545c-.276 0-.5.222-.5.497v2.264h-2.269a.498.498 0 0 0-.498.499V5.1c0 .276.223.5.498.5h2.27v2.263c0 .275.223.497.5.497h1.544c.277 0 .5-.222.5-.497V5.6h2.27a.498.498 0 0 0 .498-.498V3.56a.498.498 0 0 0-.499-.499" fill="#6b5a63"/></g></svg>