<svg xmlns="http://www.w3.org/2000/svg" viewBox="0 0 52 51" fill="none">
  <path d="M26.0193 0.0721077V0.0693359L25.9793 0.0707218L25.9393 0.0693359V0.0707218C7.29934 0.207923 0.325545 8.4095 0.0634766 25.4903C0.326925 42.5726 7.29934 50.7741 25.9393 50.9114V50.9127H25.9793H26.0193V50.9114C44.7462 50.7755 51.72 42.5726 51.9821 25.4903C51.7186 8.4095 44.7462 0.206537 26.0193 0.0721077ZM35.2 16.8425C35.7131 16.3311 39.4704 12.3842 40.9573 11.4473C42.4442 10.5049 43.5338 12.4382 43.1959 12.7722C42.8566 13.1104 36.869 18.288 36.4718 18.5513C35.6952 19.0655 34.6855 17.3511 35.2 16.8425ZM31.0593 40.5007H30.0883C30.0883 40.5007 29.1338 40.4993 28.7173 39.5029C26.9421 35.258 24.0469 28.1845 23.5393 27.9738C22.9959 27.7479 19.4166 27.2947 17.1255 27.0037V36.799H20.6304V39.1994H9.05934V37.1261C9.75727 37.0319 10.2566 36.8947 10.5586 36.7214C10.8607 36.544 11.1049 36.2433 11.2938 35.822C11.4207 35.5462 11.5104 35.1235 11.5628 34.5609C11.6124 34.0176 11.64 32.1273 11.64 32.1273V12.757C16.3586 11.0246 24.7835 9.98108 24.9862 11.3157C25.2483 13.0355 25.2055 17.1543 22.1559 17.1543C21.0649 17.1543 20.2773 16.0706 19.8097 14.4311C19.3573 14.5988 17.1255 15.3763 17.1255 15.3763V24.0338C19.0304 23.8218 21.4524 23.5668 22.2842 23.151C24.5062 22.0936 28.469 14.4394 30.1283 10.4814H31.0607V40.5007H31.0593ZM41.7366 34.8644C39.7766 34.3946 35.6276 32.6983 35.1835 32.27C34.7366 31.839 34.5021 29.2544 35.8855 29.5579C36.509 29.6951 42.3614 32.392 43.0924 32.7689C43.8207 33.1459 43.6911 35.3314 41.7366 34.8644ZM44.6897 24.778C43.6014 25.1758 35.8745 26.5852 35.2938 26.5852C34.7104 26.5852 34.2069 24.1613 35.2124 23.7303C36.0469 23.3783 42.8773 21.9051 43.4883 21.9051C44.0938 21.9051 45.7821 24.3858 44.6897 24.778Z" fill="#1f2937"/>
</svg>
