<svg xmlns="http://www.w3.org/2000/svg" xmlns:xlink="http://www.w3.org/1999/xlink" id="Layer_1" x="0px" y="0px" viewBox="0 0 710.34 421.65" style="enable-background:new 0 0 710.34 421.65;" xml:space="preserve"><style type="text/css">	.st0{fill-rule:evenodd;clip-rule:evenodd;fill:#1f2937;}	.st1{fill:#1f2937;}</style><g>	<path class="st0" d="M351.28,217.76h-21.2l-25.22-32.47v-84.54l-4.83-5.91v84L279.1,152V33.66l46.7,60.38v84.27l4.56,5.36V54.59  l20.93-20.67L351.28,217.76L351.28,217.76z"></path>	<path class="st0" d="M355.57,217.76V33.93L376.5,54.6c0,0,0,86.24,0,129.35c0.09,0,4.56-5.95,4.56-5.95V94.31L402,67.48v83.36  l4.29-5.53v-84l20.93-26.84v118.08l-50.45,65.21H355.57z"></path></g><g>	<path class="st1" d="M66.8,304.88h16.01v50.02H69.23l-44.45-32.44v32.44H8.77v-50.02h14.22l43.8,31.94L66.8,304.88L66.8,304.88z"></path>	<path class="st1" d="M106.24,342.76h49.88v12.15H89.66v-50.02h65.74v12.15h-49.16v7.22h46.31v10.29h-46.3L106.24,342.76  L106.24,342.76z"></path>	<path class="st1" d="M249.94,304.88h17.79l-24.65,50.02H229l-16.51-31.94l-16.51,31.94H181.9l-24.65-50.02h18.58l14.72,32.44  l16.08-32.44h12.29l16.29,32.44L249.94,304.88z"></path>	<path class="st1" d="M380.71,304.88h17.79l-24.65,50.02h-14.08l-16.51-31.94l-16.51,31.94h-14.08l-24.65-50.02h18.58l14.72,32.44  l16.08-32.44h12.29l16.29,32.44L380.71,304.88z"></path>	<path class="st1" d="M412.5,354.9c-9.79,0-14.43-4.5-14.43-14.43v-21.15c0-9.93,4.64-14.43,14.43-14.43h45.88  c9.79,0,14.43,4.5,14.43,14.43v21.15c0,9.93-4.64,14.43-14.43,14.43H412.5z M451.66,341.83c3.36,0,4.57-1.14,4.57-4.57v-14.72  c0-3.43-1.21-4.57-4.57-4.57h-32.44c-3.43,0-4.57,1.14-4.57,4.57v14.72c0,3.43,1.14,4.57,4.57,4.57H451.66z"></path>	<path class="st1" d="M552.35,354.9h-20.22l-13.72-16.08h-22.79v16.08h-16.58v-50.02h58.17c9.15,0,13.01,3.86,13.01,13.01v6.79  c0,9.15-3.79,12.93-12.86,13L552.35,354.9z M495.61,316.24v11.58h34.16c2.93,0,3.86-0.93,3.86-3.86v-3.86  c0-2.93-0.93-3.86-3.86-3.86L495.61,316.24L495.61,316.24z"></path>	<path class="st1" d="M572.92,341.25h46.3v13.65h-62.87v-50.02h16.58v36.37H572.92z"></path>	<path class="st1" d="M623.51,354.9v-50.02h56.17c11.65,0,17.86,6.15,17.86,17.86v14.29c0,11.72-6.22,17.86-17.86,17.86  L623.51,354.9L623.51,354.9z M640.09,341.83h35.16c3.79,0,5.72-1.93,5.72-5.72v-12.43c0-3.79-1.93-5.72-5.72-5.72h-35.16V341.83z"></path></g><g>	<path class="st1" d="M134.32,378.75h6.92v27.2h-6.92V378.75z"></path>	<path class="st1" d="M182.84,378.75h6.6v27.2h-5.52l-19.89-18.65v18.65h-6.6v-27.2h5.83l19.58,18.38V378.75z"></path>	<path class="st1" d="M234.12,378.75v5.91h-11.73v21.29h-6.84v-21.29h-11.73v-5.91H234.12z"></path>	<path class="st1" d="M255.38,400.43h21.21v5.52H248.5v-27.2h27.7v5.52h-20.82v5.17h19.27v5.05h-19.27L255.38,400.43L255.38,400.43z  "></path>	<path class="st1" d="M323.13,405.95h-7.81l-7.11-9.48h-9.87v9.48h-6.84v-27.2h23.7c4.78,0,6.76,1.94,6.76,6.76v3.73  c0,4.66-1.94,6.64-6.45,6.76L323.13,405.95z M298.34,383.73v7.93h14.1c2.06,0,2.68-0.66,2.68-2.72v-2.49  c0-2.06-0.62-2.72-2.68-2.72H298.34L298.34,383.73z"></path>	<path class="st1" d="M363.92,405.95l-2.52-5.09h-16.39l-2.53,5.09h-7.46l14.53-27.2h7.65l14.53,27.2H363.92z M347.57,395.69h11.27  l-5.63-11.42L347.57,395.69z"></path>	<path class="st1" d="M391.16,405.95c-5.13,0-7.54-2.37-7.54-7.54v-12.12c0-5.17,2.41-7.54,7.54-7.54h16.32  c5.13,0,7.54,2.37,7.54,7.54v3.19h-6.61v-1.94c0-2.37-0.81-3.19-3.19-3.19h-11.58c-2.33,0-3.19,0.82-3.19,3.19v9.63  c0,2.37,0.85,3.19,3.19,3.19h11.58c2.37,0,3.19-0.82,3.19-3.19v-2.21h6.61v3.46c0,5.17-2.41,7.54-7.54,7.54h-16.32V405.95z"></path>	<path class="st1" d="M458.99,378.75v5.91h-11.73v21.29h-6.84v-21.29h-11.73v-5.91H458.99z"></path>	<path class="st1" d="M473.56,378.75h6.92v27.2h-6.92V378.75z"></path>	<path class="st1" d="M522.82,378.75h7.26l-14.57,27.2h-6.45l-14.57-27.2h7.61l10.37,20.32L522.82,378.75z"></path>	<path class="st1" d="M550.79,400.43H572v5.52h-28.09v-27.2h27.7v5.52h-20.82v5.17h19.27v5.05h-19.27V400.43z"></path></g></svg>