<svg xmlns="http://www.w3.org/2000/svg" xmlns:xlink="http://www.w3.org/1999/xlink" width="500" height="500" viewBox="0 0 375 375"><clipPath id="a"><path transform="scale(.24)" d="M0 0h1562.5v1562.5H0z" fill-rule="evenodd"/></clipPath><g clip-path="url(#a)"><path d="M0 0h375v375H0z" fill="#fff"/></g><clipPath id="b"><path transform="scale(.24)" d="M0 0h1562.5v1562.5H0z" fill-rule="evenodd"/></clipPath><g clip-path="url(#b)"><path d="M0 0h375v375H0z" fill="#fff" data-name="Div"/><clipPath id="c"><path transform="scale(.24)" d="M857.398 818.975h28.75v37.713h-28.75z" fill-rule="evenodd"/></clipPath><clipPath id="d"><path transform="matrix(.24 0 0 .24 205.68 196.32)" d="M0 0h30v39H0z" fill-rule="evenodd"/></clipPath><g clip-path="url(#d)"><path d="M205.775 196.554h6.9v9.056h-6.9z" fill="#fff" data-name="Div"/></g></g><clipPath id="e"><path transform="scale(.24)" d="M0 0h1562.5v1562.5H0z" fill-rule="evenodd"/></clipPath><g clip-path="url(#e)"><clipPath id="f"><path transform="matrix(.24 0 0 .24 96 194.64)" d="M0 0h867v313H0z" fill-rule="evenodd"/></clipPath><g data-name="H1" clip-path="url(#f)"><g data-name="NonStruct"><symbol id="g"><path d="M.249 0H.17L0 .498h.09l.118-.36.01-.03.01.03.114.36h.064l.11-.354.011-.036H.53l.013.038.116.352h.089L.575 0H.496L.373.373.249 0z"/></symbol><symbol id="h"><path d="M.24 0a.227.227 0 0 0-.17.077.268.268 0 0 0-.07.186.268.268 0 0 0 .07.186.234.234 0 0 0 .17.077C.27.526.298.52.324.51A.205.205 0 0 0 .438.405v.107h.08V.014h-.08V.12A.196.196 0 0 0 .392.056.21.21 0 0 0 .324.015.232.232 0 0 0 .24 0m.018.079A.17.17 0 0 1 .421.19a.192.192 0 0 1 0 .145.179.179 0 0 1-.161.112.17.17 0 0 1-.125-.051.192.192 0 0 1-.052-.132A.184.184 0 0 1 .135.13.172.172 0 0 1 .26.078z"/></symbol><use xlink:href="#g" transform="matrix(87.42106 0 0 -87.42106 96.752 254.714)" fill="#ffb800"/><use xlink:href="#h" transform="matrix(87.42106 0 0 -87.42106 160.436 255.951)" fill="#ffb800"/></g><g data-name="NonStruct"><symbol id="i"><path d="M0 0z"/></symbol><use xlink:href="#i" transform="matrix(87.42106 0 0 -87.42106 207.311 254.714)" fill="#ffb800"/><use xlink:href="#i" transform="matrix(87.42106 0 0 -87.42106 223.402 254.714)" fill="#ffb800"/><use xlink:href="#i" transform="matrix(87.42106 0 0 -87.42106 239.492 254.714)" fill="#ffb800"/><use xlink:href="#i" transform="matrix(87.42106 0 0 -87.42106 255.583 254.714)" fill="#ffb800"/><use xlink:href="#i" transform="matrix(87.42106 0 0 -87.42106 271.673 254.714)" fill="#ffb800"/><use xlink:href="#i" transform="matrix(87.42106 0 0 -87.42106 287.764 254.714)" fill="#ffb800"/></g></g><clipPath id="j"><path transform="matrix(.24 0 0 .24 242.64 194.64)" d="M0 0h322v313H0z" fill-rule="evenodd"/></clipPath><g data-name="H1" clip-path="url(#j)"><g data-name="NonStruct"><symbol id="k"><path d="M.5.275.499.26.498.241H.085a.193.193 0 0 1 .03-.087.16.16 0 0 1 .137-.076C.284.078.313.085.336.1A.128.128 0 0 1 .39.164h.094a.23.23 0 0 0-.15-.15.251.251 0 0 0-.18.007.254.254 0 0 0-.135.14.275.275 0 0 0 0 .204.262.262 0 0 0 .134.14c.03.014.064.02.1.02A.24.24 0 0 0 .481.37.253.253 0 0 0 .5.275m-.411.04h.325a.118.118 0 0 1-.016.05.162.162 0 0 1-.086.07.17.17 0 0 1-.13-.004.16.16 0 0 1-.093-.116z"/></symbol><symbol id="l"><path d="M.084 0H0v.498h.081V.387A.173.173 0 0 0 .14.468c.026.02.057.03.093.03h.049V.424H.237A.14.14 0 0 1 .159.402.152.152 0 0 1 .104.337a.244.244 0 0 1-.02-.103V0z"/></symbol><use xlink:href="#k" transform="matrix(87.42106 0 0 -87.42106 246.025 255.909)" fill="#ffb800"/><use xlink:href="#l" transform="matrix(87.42106 0 0 -87.42106 293.916 254.714)" fill="#ffb800"/></g></g><path stroke-width="6.75" fill="none" stroke="#ffb800" d="M216.047 211.183v43.789M241.493 211.922l-26.08 31.47M244.49 252.79l-17.89-22.233"/></g><clipPath id="m"><path transform="scale(.24)" d="M0 0h1562.5v1562.5H0z"/></clipPath><g clip-path="url(#m)"><clipPath id="n"><path transform="scale(.24)" d="M0 0h1562.5v1562.5H0z"/></clipPath><g clip-path="url(#n)"><clipPath id="o"><path transform="scale(.24)" d="m993.07 873.156 21.318-21.317 22.317 22.317-21.317 21.317-22.318-22.317z"/></clipPath><g clip-path="url(#o)"><clipPath id="p"><path transform="scale(.24)" d="m1036.654 874.104-21.318 21.318-22.266-22.266 43.584.948z"/></clipPath><g clip-path="url(#p)"><clipPath id="q"><path transform="matrix(.24 0 0 .24 238.32 209.52)" d="M0 0h44v23H0z"/></clipPath><g clip-path="url(#q)"><path d="m238.337 209.558 5.116-5.117 5.336 5.336-5.116 5.117z" fill="#ffb800" data-name="Div"/></g></g></g></g></g><clipPath id="r"><path transform="scale(.24)" d="M0 0h1562.5v1562.5H0z"/></clipPath><g clip-path="url(#r)"><clipPath id="s"><path transform="scale(.24)" d="M0 0h1562.5v1562.5H0z"/></clipPath><g clip-path="url(#s)"><clipPath id="t"><path transform="scale(.24)" d="m1049.799 1062.812-21.318 21.318-22.317-22.318 21.318-21.317 22.317 22.317z"/></clipPath><g clip-path="url(#t)"><clipPath id="u"><path transform="scale(.24)" d="m1006.216 1061.864 21.317-21.318 22.266 22.266-43.583-.948z"/></clipPath><g clip-path="url(#u)"><clipPath id="v"><path transform="matrix(.24 0 0 .24 241.44 249.6)" d="M0 0h44v23H0z"/></clipPath><g clip-path="url(#v)"><path d="m251.952 255.075-5.117 5.116-5.336-5.336 5.117-5.116z" fill="#ffb800" data-name="Div"/></g></g></g></g></g><clipPath id="w"><path transform="scale(.24)" d="M0 0h1562.5v1562.5H0z" fill-rule="evenodd"/></clipPath><g clip-path="url(#w)"><clipPath id="x"><path transform="matrix(.24 0 0 .24 49.92 194.64)" d="M0 0h240v313H0z" fill-rule="evenodd"/></clipPath><g data-name="P" clip-path="url(#x)"><g data-name="NonStruct"><symbol id="y"><path d="M.645 0H.553L.49.15H.155L.092 0H0l.281.664h.083L.645 0M.319.542.186.224h.273L.326.542.323.554.318.542z"/></symbol><use xlink:href="#y" transform="matrix(87.42106 0 0 -87.42106 50.526 254.714)" fill="#ffb800"/></g></g></g><path d="M212.507 255.136h7.087v-43.788h-7.087z" fill="none" data-name="Image"/><path d="M212.692 245.818h31.536v-35.992h-31.536z" fill="none" data-name="Image"/><path d="M223.841 255.18h23.412v-26.675H223.84z" fill="none" data-name="Image"/></svg>