<svg xmlns="http://www.w3.org/2000/svg" xmlns:xlink="http://www.w3.org/1999/xlink" xmlns:inkscape="http://www.inkscape.org/namespaces/inkscape" version="1.1" width="375" height="375" viewBox="0 0 375 375">
<defs>
<clipPath id="clip_89">
<path transform="matrix(.24,0,0,.24,0,0)" d="M0 0H1562.5V1562.5H0Z" clip-rule="evenodd"/>
</clipPath>
<clipPath id="clip_90">
<path transform="matrix(.24,0,0,.24,0,0)" d="M0 0H1562.5V1562.5H0Z" clip-rule="evenodd"/>
</clipPath>
<clipPath id="clip_91">
<path transform="matrix(.24,0,0,.24,0,0)" d="M0 0H1562.5V1562.5H0Z" clip-rule="evenodd"/>
</clipPath>
<clipPath id="clip_92">
<path transform="matrix(.24,0,0,.24,96,194.64)" d="M0 0H867V313H0Z" clip-rule="evenodd"/>
</clipPath>
<path id="font_93_57" d="M.2548828 0H.17773438L.0063476564 .49853517H.09667969L.21484375 .13832093 .2241211 .10850525H.22509766L.23486328 .13783264 .34814454 .49853517H.41259767L.52246096 .1441803 .5336914 .10850525H.53515627L.54833987 .14564514 .6640625 .49853517H.7529297L.58154299 0H.5024414L.37939454 .3734131H.37890626L.2548828 0Z"/>
<path id="font_93_33" d="M.2788086-.0146484379C.2446289-.0146484379 .212972-.007888794 .18383789 .005630493 .15470378 .019159953 .12923177 .037979127 .107421878 .062088014 .08561198 .0861969 .068603519 .114217128 .056396486 .14614868 .044189454 .17808025 .038085939 .21229045 .038085939 .2487793 .038085939 .28526817 .044189454 .31939698 .056396486 .35116578 .068603519 .38293458 .08561198 .4108734 .107421878 .4349823 .12923177 .4590912 .15470378 .47790528 .18383789 .49142457 .212972 .50495406 .24446614 .51171877 .2783203 .51171877 .30826823 .51171877 .33610026 .5068309 .3618164 .49705506 .38753257 .48727928 .41023765 .473348 .42993165 .45526124 .44962565 .43718467 .4650065 .41576133 .47607423 .3909912V.49804688H.5566406V-.00047302247H.47607423V.10557556C.4650065 .08113098 .44962565 .059870405 .42993165 .041793825 .41023765 .023717246 .38753257 .009791057 .3618164 .000015258789 .33610026-.009760539 .308431-.0146484379 .2788086-.0146484379M.29736329 .06404114C.32177735 .06404114 .34464518 .0686849 .3659668 .07797241 .38728843 .087259929 .40592448 .10029093 .421875 .11706543 .43782554 .1338501 .45035807 .15348308 .45947267 .17596436 .46858726 .19844564 .47314454 .22271729 .47314454 .2487793 .47314454 .27451579 .46858726 .2985433 .45947267 .32086183 .45035807 .34318034 .43774415 .36272685 .42163087 .37950135 .40551759 .396286 .3868815 .40940348 .36572267 .41885377 .3445638 .42830406 .3219401 .43302918 .29785157 .43302918 .2734375 .43302918 .25065104 .4285482 .22949219 .41958619 .20833333 .41062419 .18961589 .39783225 .17333985 .38121034 .1570638 .3645986 .14436849 .34513346 .1352539 .32281495 .12613933 .30049644 .12158203 .27581788 .12158203 .2487793 .12158203 .22108968 .1262207 .19592285 .13549805 .17327881 .14477539 .15063477 .1574707 .13116455 .17358399 .114868167 .18969727 .09858195 .20841472 .08603922 .22973633 .07723999 .25105796 .06844076 .27360026 .06404114 .29736329 .06404114Z"/>
<path id="font_93_1" d="M0 0Z"/>
<clipPath id="clip_94">
<path transform="matrix(.24,0,0,.24,242.64,194.64)" d="M0 0H322V313H0Z" clip-rule="evenodd"/>
</clipPath>
<path id="font_93_37" d="M.5371094 .26164247C.5371094 .25742088 .5371094 .25294496 .5371094 .24821472 .5371094 .24349468 .5367839 .23657735 .5361328 .22746277H.123046878C.12662761 .19418843 .13639324 .1653188 .15234375 .14085388 .16829427 .116388957 .1883138 .09754944 .21240235 .08433533 .23649089 .071131389 .26220704 .06452942 .28955079 .06452942 .32307945 .06452942 .35172526 .071787517 .37548829 .08630371 .3992513 .10081991 .41666667 .12210083 .42773438 .15014649H.52197268C.5148112 .12732952 .5041504 .10597738 .48999024 .08609009 .47583009 .066212978 .45874024 .048853559 .4387207 .03401184 .41870118 .019180298 .39624024 .0075276696 .3713379-.0009460449 .34643556-.009429932 .31982423-.013671875 .2915039-.013671875 .2553711-.013671875 .22192383-.0069122316 .19116211 .0066070558 .16040039 .020136515 .13354492 .03895569 .1105957 .063064578 .087646488 .08717346 .06982422 .115112308 .057128908 .1468811 .044433595 .1786499 .038085939 .21277873 .038085939 .24926758 .038085939 .28575645 .04442851 .31988526 .057113649 .35165406 .06979879 .38342286 .08760071 .4113617 .11051941 .43547059 .13344829 .45957948 .16027832 .47847495 .19100952 .49215699 .22174073 .5058492 .25515748 .5126953 .29125978 .5126953 .32702638 .5126953 .35994975 .506017 .3900299 .49266053 .42012025 .47931419 .44613648 .46091715 .4680786 .43746949 .4900309 .41403199 .5070241 .3872528 .5190582 .35713197 .53109237 .3270111 .5371094 .29518128 .5371094 .26164247M.12695313 .3017578H.45166017C.45035807 .31931559 .4452311 .33606468 .4362793 .352005 .42732749 .36795555 .41552735 .3820292 .4008789 .39422608 .38623048 .4064331 .36938478 .41603089 .3503418 .4230194 .33129884 .4300181 .3111979 .43351747 .29003907 .43351747 .26529948 .43351747 .24169922 .4284719 .21923828 .41838075 .19677735 .40829978 .17740886 .39349876 .16113281 .37397767 .14485677 .35446678 .13346355 .33039347 .12695313 .3017578Z"/>
<path id="font_93_52" d="M.16455078 0H.080078128V.4985962H.16113281V.38716126C.17350261 .421697 .19278972 .4489034 .21899414 .46878053 .24519857 .48865763 .2763672 .4985962 .3125 .4985962H.36083985V.4248047H.31689454C.2879232 .4248047 .2618815 .41730754 .23876953 .40231324 .21565755 .3873291 .19750977 .36565653 .18432617 .33729554 .17114258 .3089447 .16455078 .2747294 .16455078 .23464966V0Z"/>
<clipPath id="clip_95">
<path transform="matrix(.24,0,0,.24,0,0)" d="M0 0H1562.5V1562.5H0Z"/>
</clipPath>
<clipPath id="clip_96">
<path transform="matrix(.24,0,0,.24,0,0)" d="M0 0H1562.5V1562.5H0Z"/>
</clipPath>
<clipPath id="clip_97">
<path transform="matrix(.24,0,0,.24,0,0)" d="M996.9367 879.42739 1018.2546 858.1095 1040.5717 880.42666 1019.25387 901.7445 996.9367 879.42739Z"/>
</clipPath>
<clipPath id="clip_98">
<path transform="matrix(.24,0,0,.24,0,0)" d="M1040.5199 880.3748 1019.202 901.6927 996.9367 879.42739 1040.5199 880.3748Z"/>
</clipPath>
<clipPath id="clip_99">
<path transform="matrix(.24,0,0,.24,239.04,210.95999)" d="M0 0H45V23H0Z"/>
</clipPath>
<clipPath id="clip_100">
<path transform="matrix(.24,0,0,.24,0,0)" d="M0 0H1562.5V1562.5H0Z"/>
</clipPath>
<clipPath id="clip_101">
<path transform="matrix(.24,0,0,.24,0,0)" d="M0 0H1562.5V1562.5H0Z"/>
</clipPath>
<clipPath id="clip_102">
<path transform="matrix(.24,0,0,.24,0,0)" d="M1049.7988 1062.8115 1028.481 1084.1294 1006.1638 1061.8123 1027.4817 1040.4944 1049.7988 1062.8115Z"/>
</clipPath>
<clipPath id="clip_103">
<path transform="matrix(.24,0,0,.24,0,0)" d="M1006.21566 1061.864 1027.5335 1040.5462 1049.7988 1062.8115 1006.21566 1061.864Z"/>
</clipPath>
<clipPath id="clip_104">
<path transform="matrix(.24,0,0,.24,241.43999,249.59999)" d="M0 0H44V23H0Z"/>
</clipPath>
<clipPath id="clip_105">
<path transform="matrix(.24,0,0,.24,0,0)" d="M0 0H1562.5V1562.5H0Z" clip-rule="evenodd"/>
</clipPath>
<clipPath id="clip_106">
<path transform="matrix(.24,0,0,.24,49.92,194.64)" d="M0 0H240V313H0Z" clip-rule="evenodd"/>
</clipPath>
<path id="font_93_2" d="M.6513672 0H.5595703L.49658204 .15039063H.16113281L.09814453 0H.0063476564L.28759767 .6645508H.37060548L.6513672 0M.3256836 .54286196 .19189453 .2237091H.4658203L.33203126 .54286196 .32958985 .55410769H.32861329L.3256836 .54286196Z"/>
</defs>
<g>
<g clip-path="url(#clip_89)">
<path transform="matrix(.75,0,0,.75,0,0)" d="M0 0H500V500H0Z" fill="#ffffff"/>
</g>
<g clip-path="url(#clip_90)">
<path transform="matrix(.75,0,0,.75,0,0)" d="M0 0H500V500H0Z" fill="#ffffff"/>
</g>
<g clip-path="url(#clip_91)">
<g>
<g clip-path="url(#clip_92)">
<use data-text="w" xlink:href="#font_93_57" transform="matrix(87.42106,0,0,-87.42106,96.196979,254.71356)" fill="#ffb800"/>
<use data-text="a" xlink:href="#font_93_33" transform="matrix(87.42106,0,0,-87.42106,157.06339,254.71356)" fill="#ffb800"/>
<use data-text=" " xlink:href="#font_93_1" transform="matrix(87.42106,0,0,-87.42106,207.31147,254.71356)" fill="#ffb800"/>
<use data-text=" " xlink:href="#font_93_1" transform="matrix(87.42106,0,0,-87.42106,223.40195,254.71356)" fill="#ffb800"/>
<use data-text=" " xlink:href="#font_93_1" transform="matrix(87.42106,0,0,-87.42106,239.49243,254.71356)" fill="#ffb800"/>
<use data-text=" " xlink:href="#font_93_1" transform="matrix(87.42106,0,0,-87.42106,255.58292,254.71356)" fill="#ffb800"/>
<use data-text=" " xlink:href="#font_93_1" transform="matrix(87.42106,0,0,-87.42106,271.6734,254.71356)" fill="#ffb800"/>
<use data-text=" " xlink:href="#font_93_1" transform="matrix(87.42106,0,0,-87.42106,287.76387,254.71356)" fill="#ffb800"/>
</g>
</g>
<g>
<g clip-path="url(#clip_94)">
<use data-text="e" xlink:href="#font_93_37" transform="matrix(87.42106,0,0,-87.42106,242.6532,254.71356)" fill="#ffb800"/>
<use data-text="r" xlink:href="#font_93_52" transform="matrix(87.42106,0,0,-87.42106,286.87269,254.71356)" fill="#ffb800"/>
</g>
</g>
<path transform="matrix(.0000000013089968,.75,-.75,.0000000013089968,219.4219,211.18315)" stroke-width="9" stroke-linecap="butt" stroke-miterlimit="4" stroke-linejoin="miter" fill="none" stroke="#ffb800" d="M0 4.5H58.38464"/>
<path transform="matrix(-.5031736,.5561621,-.5561621,-.5031736,244.89705,215.83527)" stroke-width="9" stroke-linecap="butt" stroke-miterlimit="4" stroke-linejoin="miter" fill="none" stroke="#ffb800" d="M-.0000000000000035527138 4.5H53.61791"/>
<path transform="matrix(-.47017844,-.58432206,.58432206,-.47017844,241.8612,254.90557)" stroke-width="9" stroke-linecap="butt" stroke-miterlimit="4" stroke-linejoin="miter" fill="none" stroke="#ffb800" d="M.000000000000010658141 4.5H38.04894"/>
</g>
<g clip-path="url(#clip_95)">
<g clip-path="url(#clip_96)">
<g clip-path="url(#clip_97)">
<g clip-path="url(#clip_98)">
<g>
<g clip-path="url(#clip_99)">
<path transform="matrix(.019985494,-.019985494,.019985494,.019985494,239.2648,211.06256)" d="M0 0H256V267H0Z" fill="#ffb800"/>
</g>
</g>
</g>
</g>
</g>
</g>
<g clip-path="url(#clip_100)">
<g clip-path="url(#clip_101)">
<g clip-path="url(#clip_102)">
<g clip-path="url(#clip_103)">
<g>
<g clip-path="url(#clip_104)">
<path transform="matrix(-.019985494,.019985494,-.019985494,-.019985494,251.9517,255.07476)" d="M0 0H256V267H0Z" fill="#ffb800"/>
</g>
</g>
</g>
</g>
</g>
</g>
<g clip-path="url(#clip_105)">
<g>
<g clip-path="url(#clip_106)">
<use data-text="A" xlink:href="#font_93_2" transform="matrix(87.42106,0,0,-87.42106,49.970586,254.71356)" fill="#ffb800"/>
</g>
</g>
</g>
<path transform="matrix(1,0,0,-1,0,383.03999)" d="M212.6755 128.07196H219.4255V171.86045H212.6755Z" fill-opacity="0"/>
<path transform="matrix(1,0,0,-1,0,383.03999)" d="M212.91783 137.38686H244.9024V171.73567H212.91783Z" fill-opacity="0"/>
<path transform="matrix(1,0,0,-1,0,383.03999)" d="M223.97269 128.13382H247.12137V154.59827H223.97269Z" fill-opacity="0"/>
</g>
</svg>
