<?xml version="1.0" encoding="UTF-8" standalone="no"?>
<!DOCTYPE svg PUBLIC "-//W3C//DTD SVG 1.1//EN" "http://www.w3.org/Graphics/SVG/1.1/DTD/svg11.dtd">
<svg xmlns="http://www.w3.org/2000/svg" xmlns:xlink="http://www.w3.org/1999/xlink" version="1.1" width="1041.6666pt" height="1041.6666pt" viewBox="0 0 1041.6666 1041.6666">
<g enable-background="new">
<g>
<clipPath id="cp0">
<path transform="matrix(.6666666,0,0,.6666666,0,0)" d="M 0 0 L 1562.5 0 L 1562.5 1562.5 L 0 1562.5 Z " fill-rule="evenodd"/>
</clipPath>
<g clip-path="url(#cp0)">
<g id="Layer-1" data-name="Div">
<path transform="matrix(2.0833333,0,0,2.0833333,0,0)" d="M 0 0 L 500 0 L 500 500 L 0 500 Z " fill="#ffffff"/>
</g>
<clipPath id="cp1">
<path transform="matrix(.6666666,0,0,.6666666,0,0)" d="M 0 0 L 1562.5 0 L 1562.5 1562.5 L 0 1562.5 Z " fill-rule="evenodd"/>
</clipPath>
<g clip-path="url(#cp1)">
</g>
<g id="Layer-1" data-name="Div">
<path transform="matrix(2.0833333,0,0,2.0833333,0,0)" d="M 0 0 L 500 0 L 500 500 L 0 500 Z " fill="#ffffff"/>
</g>
<clipPath id="cp2">
<path transform="matrix(.6666666,0,0,.6666666,0,0)" d="M 0 0 L 1562.5 0 L 1562.5 1562.5 L 0 1562.5 Z " fill-rule="evenodd"/>
</clipPath>
<g clip-path="url(#cp2)">
</g>
<g>
<clipPath id="cp3">
<path transform="matrix(.6666666,0,0,.6666666,210.66664,446.66667)" d="M 0 0 L 934 0 L 934 893 L 0 893 Z " fill-rule="evenodd"/>
</clipPath>
<g clip-path="url(#cp3)">
<g id="Layer-1" data-name="P">
<g id="Layer-2" data-name="NonStruct">
<symbol id="font_4_2">
<path d="M 0 0 L .44200004 .749 L .88400009 0 L 0 0 Z "/>
</symbol>
<use xlink:href="#font_4_2" transform="matrix(694.9955,0,0,-694.9955,214.64424,972.27767)" fill="#5170ff"/>
</g>
</g>
</g>
</g>
</g>
<clipPath id="cp5">
<path transform="matrix(.6666666,0,0,.6666666,0,0)" d="M 421.8504 91.31312 L 1140.6004 91.31312 L 1140.6004 713.1881 L 421.8504 713.1881 Z " fill-rule="evenodd"/>
</clipPath>
<g clip-path="url(#cp5)">
<path transform="matrix(3.7971409,0,0,3.7971409,283.13218,62.047407)" d="M 86.2 19.7 C 85.299999 43.6 84.399997 46.6 81.5 70.3 C 80.7 76.600009 79.8 82.8 78.8 89.100009 C 78.4 91.8 77.200008 92.700008 74.600009 92.50001 C 72.100009 92.30001 71.200008 91.50001 71.40001 88.50001 C 72.20001 78.00001 72.70001 67.40001 74.00001 56.90001 C 76.80001 33.500009 77.30001 30.800009 80.40001 7.5000078 C 80.600009 6.300008 80.80001 5.0000078 81.00001 3.8000077 C 81.30001 1.9000075 81.40001 -.19999242 84.200008 .0000076293949 C 86.9 .30000765 86.600009 2.5000077 86.600009 4.2000076 C 86.700008 8.400007 86.50001 12.500008 86.40001 16.700009 C 86.3 17.7 86.2 18.7 86.2 19.7 Z " fill="#ffb800"/>
<path transform="matrix(3.7971409,0,0,3.7971409,283.13218,62.047407)" d="M 97.5 97.4 C 94.2 97.4 93.3 96.4 94.6 93.700008 C 99.2 84.00001 103.799999 74.40001 108.7 64.8 C 110.1 62.000005 112.1 59.300004 115.899997 59.500005 C 118.49999 59.600004 119.2 60.300004 118.2 62.700006 C 114.6 70.700008 110.799999 78.700008 107 86.600009 C 105.7 89.3 104 91.8 102.4 94.3 C 101.2 96.2 99.7 97.5 97.5 97.4 Z " fill="#ffb800"/>
<path transform="matrix(3.7971409,0,0,3.7971409,283.13218,62.047407)" d="M 27.5 94.4 C 25.5 97 24.2 97.1 22.8 94.5 C 17.8 85 12.9 75.5 8.199999 65.8 C 6.7999989 63.000005 5.8999989 59.800004 8.299999 56.9 C 9.999999 54.9 10.999999 54.7 12.199999 57 C 16.399998 64.7 20.5 72.5 24.5 80.4 C 26 83 27 85.8 28 88.6 C 28.8 90.7 28.9 92.7 27.5 94.4 Z " fill="#ffb800"/>
<path transform="matrix(3.7971409,0,0,3.7971409,283.13218,62.047407)" d="M 110.3 104.7 C 110 104.399997 109.9 103.799999 110.3 103.5 C 112.600009 101 114.700008 98.7 117 96.5 C 118.8 94.7 122.9 94.6 124.9 96.2 C 125.4 96.6 125.700008 98.299999 125.4 98.6 C 122.4 101.2 119.5 103.9 116.1 105.9 C 114.3 107 112.1 106.5 110.3 104.7 Z " fill="#ffb800"/>
<path transform="matrix(3.7971409,0,0,3.7971409,283.13218,62.047407)" d="M 9 108.5 C 8.7 108.8 8.1 108.8 7.8 108.5 C 5.5 106.1 3.2000004 103.8 1.2000003 101.5 C -.49999977 99.6 -.39999975 95.5 1.3000003 93.6 C 1.8000003 93.1 3.4 92.9 3.7000004 93.2 C 6.1000006 96.299999 8.700001 99.399997 10.5 102.899997 C 11.5 104.6 10.9 106.8 9 108.5 Z " fill="#ffb800"/>
<path transform="matrix(3.7971409,0,0,3.7971409,283.13218,62.047407)" d="M 53 82.7 C 51.6 66.5 51.5 60.899999 49.9 44.699998 C 49.3 38.6 48 32.6 47 26.5 C 46.3 22.4 40 23.3 40 27.5 C 40 32.6 40.2 37.8 40.5 42.9 C 41.2 56.2 40.9 59 42.6 72.2 C 42.699998 72.7 42.699998 73.299999 42.8 74.1 C 43.8 80.1 45.2 85.9 47.399999 87 C 47.6 87.1 47.699998 87.1 47.899999 87.2 C 51.6 88 53.3 86.6 53 82.7 Z " fill="#ffb800"/>
</g>
<clipPath id="cp6">
<path transform="matrix(.6666666,0,0,.6666666,0,0)" d="M 741.28256 1342.1185 L 828.8557 1342.1185 L 828.8557 1458.7798 L 741.28256 1458.7798 Z " fill-rule="evenodd"/>
</clipPath>
<g clip-path="url(#cp6)">
<g>
<clipPath id="cp7">
<path transform="matrix(.6666666,0,0,.6666666,493.99998,894.66659)" d="M 0 0 L 88 0 L 88 117 L 0 117 Z " fill-rule="evenodd"/>
</clipPath>
<g clip-path="url(#cp7)">
<g id="Layer-1" data-name="Div">
<path transform="matrix(.22805521,0,0,.22805521,494.18833,894.7456)" d="M 0 0 L 256 0 L 256 341 L 0 341 Z " fill="#ffffff"/>
</g>
</g>
</g>
</g>
<g id="Layer-1" data-name="Image">
<path transform="matrix(2.7777777,0,0,-2.7777777,0,1063.9999)" d="M 101.244098 211.82372 L 273.75593 211.82372 L 273.75593 361.12486 L 101.244098 361.12486 Z " fill-opacity="0"/>
</g>
</g>
</g>
</svg>
