<svg xmlns="http://www.w3.org/2000/svg" xmlns:xlink="http://www.w3.org/1999/xlink" xmlns:inkscape="http://www.inkscape.org/namespaces/inkscape" version="1.1" width="375" height="375" viewBox="0 0 375 375">
<defs>
<clipPath id="clip_80">
<path transform="matrix(.24,0,0,.24,0,0)" d="M0 0H1562.5V1562.5H0Z" clip-rule="evenodd"/>
</clipPath>
<clipPath id="clip_81">
<path transform="matrix(.24,0,0,.24,0,0)" d="M0 0H1562.5V1562.5H0Z" clip-rule="evenodd"/>
</clipPath>
<clipPath id="clip_82">
<path transform="matrix(.24,0,0,.24,0,0)" d="M0 0H1562.5V1562.5H0Z" clip-rule="evenodd"/>
</clipPath>
<clipPath id="clip_83">
<path transform="matrix(.24,0,0,.24,85.2,190.31999)" d="M0 0H852V770H0Z" clip-rule="evenodd"/>
</clipPath>
<path id="font_84_2" d="M-.027999878 0 .41400147 .7489929 .8560028 0H-.027999878Z"/>
<clipPath id="clip_85">
<path transform="matrix(.24,0,0,.24,0,0)" d="M0 0H1562.5V1562.5H0Z"/>
</clipPath>
<clipPath id="clip_86">
<path transform="matrix(.24,0,0,.24,0,0)" d="M0 0H1562.5V1562.5H0Z"/>
</clipPath>
<clipPath id="clip_87">
<path transform="matrix(.24,0,0,.24,0,0)" d="M370.92997 15.625 1251.8931 38.109907 1232.4381 800.3617 351.47496 777.8768 370.92997 15.625Z"/>
</clipPath>
<clipPath id="clip_88">
<path transform="matrix(.24,0,0,.24,0,0)" d="M370.92997 15.625 1251.8931 38.109907 1232.4381 800.3617 351.47496 777.8768 370.92997 15.625Z"/>
</clipPath>
</defs>
<g>
<g clip-path="url(#clip_80)">
<path transform="matrix(.75,0,0,.75,0,0)" d="M0 0H500V500H0Z" fill="#ffffff"/>
</g>
<g clip-path="url(#clip_81)">
<path transform="matrix(.75,0,0,.75,0,0)" d="M0 0H500V500H0Z" fill="#ffffff"/>
</g>
<g clip-path="url(#clip_82)">
<g>
<g clip-path="url(#clip_83)">
<use data-text="A" xlink:href="#font_84_2" transform="matrix(228.10118,0,0,-228.10118,93.40324,362.97715)" fill="#3855d8"/>
</g>
</g>
</g>
<g clip-path="url(#clip_85)">
<g clip-path="url(#clip_86)">
<g clip-path="url(#clip_87)">
<g clip-path="url(#clip_88)">
<path transform="matrix(1.6727665,.042694179,-.042694179,1.6727665,89.846408,4.2873308)" d="M86.2 19.7C85.299999 43.6 84.399997 46.6 81.5 70.3 80.7 76.600009 79.8 82.8 78.8 89.100009 78.4 91.8 77.200008 92.700008 74.600009 92.50001 72.100009 92.30001 71.200008 91.50001 71.40001 88.50001 72.20001 78.00001 72.70001 67.40001 74.00001 56.90001 76.80001 33.500009 77.30001 30.800009 80.40001 7.5000078 80.600009 6.300008 80.80001 5.0000078 81.00001 3.8000077 81.30001 1.9000075 81.40001-.19999242 84.200008 .0000076293949 86.9 .30000765 86.600009 2.5000077 86.600009 4.2000076 86.700008 8.400007 86.50001 12.500008 86.40001 16.700009 86.3 17.7 86.2 18.7 86.2 19.7Z" fill="#ffb800"/>
<path transform="matrix(1.6727665,.042694179,-.042694179,1.6727665,89.846408,4.2873308)" d="M97.5 97.4C94.2 97.4 93.3 96.4 94.6 93.700008 99.2 84.00001 103.799999 74.40001 108.7 64.8 110.1 62.000005 112.1 59.300004 115.899997 59.500005 118.49999 59.600004 119.2 60.300004 118.2 62.700006 114.6 70.700008 110.799999 78.700008 107 86.600009 105.7 89.3 104 91.8 102.4 94.3 101.2 96.2 99.7 97.5 97.5 97.4Z" fill="#ffb800"/>
<path transform="matrix(1.6727665,.042694179,-.042694179,1.6727665,89.846408,4.2873308)" d="M27.5 94.4C25.5 97 24.2 97.1 22.8 94.5 17.8 85 12.9 75.5 8.199999 65.8 6.7999989 63.000005 5.8999989 59.800004 8.299999 56.9 9.999999 54.9 10.999999 54.7 12.199999 57 16.399998 64.7 20.5 72.5 24.5 80.4 26 83 27 85.8 28 88.6 28.8 90.7 28.9 92.7 27.5 94.4Z" fill="#ffb800"/>
<path transform="matrix(1.6727665,.042694179,-.042694179,1.6727665,89.846408,4.2873308)" d="M110.3 104.7C110 104.399997 109.9 103.799999 110.3 103.5 112.600009 101 114.700008 98.7 117 96.5 118.8 94.7 122.9 94.6 124.9 96.2 125.4 96.6 125.700008 98.299999 125.4 98.6 122.4 101.2 119.5 103.9 116.1 105.9 114.3 107 112.1 106.5 110.3 104.7Z" fill="#ffb800"/>
<path transform="matrix(1.6727665,.042694179,-.042694179,1.6727665,89.846408,4.2873308)" d="M9 108.5C8.7 108.8 8.1 108.8 7.8 108.5 5.5 106.1 3.2000004 103.8 1.2000003 101.5-.49999977 99.6-.39999975 95.5 1.3000003 93.6 1.8000003 93.1 3.4 92.9 3.7000004 93.2 6.1000006 96.299999 8.700001 99.399997 10.5 102.899997 11.5 104.6 10.9 106.8 9 108.5Z" fill="#ffb800"/>
<path transform="matrix(1.6727665,.042694179,-.042694179,1.6727665,89.846408,4.2873308)" d="M53 82.7C51.6 66.5 51.5 60.899999 49.9 44.699998 49.3 38.6 48 32.6 47 26.5 46.3 22.4 40 23.3 40 27.5 40 32.6 40.2 37.8 40.5 42.9 41.2 56.2 40.9 59 42.6 72.2 42.699998 72.7 42.699998 73.299999 42.8 74.1 43.8 80.1 45.2 85.9 47.399999 87 47.6 87.1 47.699998 87.1 47.899999 87.2 51.6 88 53.3 86.6 53 82.7Z" fill="#ffb800"/>
</g>
</g>
</g>
</g>
<path transform="matrix(1,0,0,-1,0,383.03999)" d="M84.36019 191.20177H300.12648V379.28999H84.36019Z" fill-opacity="0"/>
</g>
</svg>
