<?xml version="1.0" encoding="UTF-8" standalone="no"?>
<!DOCTYPE svg PUBLIC "-//W3C//DTD SVG 1.1//EN" "http://www.w3.org/Graphics/SVG/1.1/DTD/svg11.dtd">
<svg xmlns="http://www.w3.org/2000/svg" xmlns:xlink="http://www.w3.org/1999/xlink" version="1.1" width="1041.6666pt" height="1041.6666pt" viewBox="0 0 1041.6666 1041.6666">
<g enable-background="new">
<g>
<clipPath id="cp0">
<path transform="matrix(.6666666,0,0,.6666666,0,0)" d="M 0 0 L 1562.5 0 L 1562.5 1562.5 L 0 1562.5 Z " fill-rule="evenodd"/>
</clipPath>
<g clip-path="url(#cp0)">
<path transform="matrix(2.0833333,0,0,2.0833333,0,0)" d="M 0 0 L 500 0 L 500 500 L 0 500 Z " fill="#ffffff"/>
</g>
<clipPath id="cp1">
<path transform="matrix(.6666666,0,0,.6666666,0,0)" d="M 0 0 L 1562.5 0 L 1562.5 1562.5 L 0 1562.5 Z " fill-rule="evenodd"/>
</clipPath>
<g clip-path="url(#cp1)">
<g id="Layer-1" data-name="Div">
<path transform="matrix(2.0833333,0,0,2.0833333,0,0)" d="M 0 0 L 500 0 L 500 500 L 0 500 Z " fill="#ffffff"/>
</g>
<clipPath id="cp2">
<path transform="matrix(.6666666,0,0,.6666666,0,0)" d="M 0 0 L 1562.5 0 L 1562.5 1562.5 L 0 1562.5 Z " fill-rule="evenodd"/>
</clipPath>
<g clip-path="url(#cp2)">
</g>
<g id="Layer-1" data-name="H1">
<g id="Layer-2" data-name="NonStruct">
<symbol id="font_3_c">
<path d="M .35000003 .35000003 L .544 .35000003 L .544 0 L 0 0 L 0 .70000007 L .35000003 .70000007 L .35000003 .35000003 Z "/>
</symbol>
<symbol id="font_3_6">
<path d="M 0 .70000007 L .58000007 .70000007 L .58000007 .46400006 L .435 .46400006 L .435 .43400005 L .58000007 .43400005 L .58000007 .26600004 L .435 .26600004 L .435 .23600002 L .58000007 .23600002 L .58000007 0 L 0 0 L 0 .70000007 Z "/>
</symbol>
<symbol id="font_3_2">
<path d="M 0 0 L .44200004 .749 L .88400009 0 L 0 0 Z "/>
</symbol>
<symbol id="font_3_5">
<path d="M .35000003 0 L 0 0 L 0 .70100006 L .35000003 .70100006 C .398 .70100006 .44300006 .69166669 .48500005 .67300006 C .5276667 .65500006 .565 .63000008 .597 .598 C .6296667 .566 .65500006 .5286667 .673 .486 C .691 .44333337 .70000007 .398 .70000007 .35 C .70000007 .30200003 .691 .25666667 .673 .21400002 C .65500006 .172 .6296667 .13466667 .597 .102000009 C .565 .07 .5276667 .045 .48500005 .027 C .44300006 .009000001 .398 0 .35000003 0 Z "/>
</symbol>
<use xlink:href="#font_3_c" transform="matrix(270.0833,0,0,-270.0833,144.36241,570.2987)" fill="#5170ff"/>
<use xlink:href="#font_3_6" transform="matrix(270.0833,0,0,-270.0833,306.39378,570.0286)" fill="#5170ff"/>
<use xlink:href="#font_3_2" transform="matrix(270.0833,0,0,-270.0833,463.29234,570.2987)" fill="#5170ff"/>
<use xlink:href="#font_3_5" transform="matrix(270.0833,0,0,-270.0833,701.75027,570.5688)" fill="#5170ff"/>
</g>
</g>
<clipPath id="cp4">
<path transform="matrix(.6666666,0,0,.6666666,0,0)" d="M 735.892 303.43544 L 1014.017 303.43544 L 1014.017 544.0604 L 735.892 544.0604 Z " fill-rule="evenodd"/>
</clipPath>
<g clip-path="url(#cp4)">
</g>
<path transform="matrix(1.4754192,0,0,1.4754192,491.33238,202.75768)" d="M 86.2 19.7 C 85.299999 43.6 84.399997 46.6 81.5 70.3 C 80.7 76.600009 79.8 82.8 78.8 89.100009 C 78.4 91.8 77.200008 92.700008 74.600009 92.50001 C 72.100009 92.30001 71.200008 91.50001 71.40001 88.50001 C 72.20001 78.00001 72.70001 67.40001 74.00001 56.90001 C 76.80001 33.500009 77.30001 30.800009 80.40001 7.5000078 C 80.600009 6.300008 80.80001 5.0000078 81.00001 3.8000077 C 81.30001 1.9000075 81.40001 -.19999242 84.200008 .0000076293949 C 86.9 .30000765 86.600009 2.5000077 86.600009 4.2000076 C 86.700008 8.400007 86.50001 12.500008 86.40001 16.700009 C 86.3 17.7 86.2 18.7 86.2 19.7 Z " fill="#ffb800"/>
<path transform="matrix(1.4754192,0,0,1.4754192,491.33238,202.75768)" d="M 97.5 97.4 C 94.2 97.4 93.3 96.4 94.6 93.700008 C 99.2 84.00001 103.799999 74.40001 108.7 64.8 C 110.1 62.000005 112.1 59.300004 115.899997 59.500005 C 118.49999 59.600004 119.2 60.300004 118.2 62.700006 C 114.6 70.700008 110.799999 78.700008 107 86.600009 C 105.7 89.3 104 91.8 102.4 94.3 C 101.2 96.2 99.7 97.5 97.5 97.4 Z " fill="#ffb800"/>
<path transform="matrix(1.4754192,0,0,1.4754192,491.33238,202.75768)" d="M 27.5 94.4 C 25.5 97 24.2 97.1 22.8 94.5 C 17.8 85 12.9 75.5 8.199999 65.8 C 6.7999989 63.000005 5.8999989 59.800004 8.299999 56.9 C 9.999999 54.9 10.999999 54.7 12.199999 57 C 16.399998 64.7 20.5 72.5 24.5 80.4 C 26 83 27 85.8 28 88.6 C 28.8 90.7 28.9 92.7 27.5 94.4 Z " fill="#ffb800"/>
<path transform="matrix(1.4754192,0,0,1.4754192,491.33238,202.75768)" d="M 110.3 104.7 C 110 104.399997 109.9 103.799999 110.3 103.5 C 112.600009 101 114.700008 98.7 117 96.5 C 118.8 94.7 122.9 94.6 124.9 96.2 C 125.4 96.6 125.700008 98.299999 125.4 98.6 C 122.4 101.2 119.5 103.9 116.1 105.9 C 114.3 107 112.1 106.5 110.3 104.7 Z " fill="#ffb800"/>
<path transform="matrix(1.4754192,0,0,1.4754192,491.33238,202.75768)" d="M 9 108.5 C 8.7 108.8 8.1 108.8 7.8 108.5 C 5.5 106.1 3.2000004 103.8 1.2000003 101.5 C -.49999977 99.6 -.39999975 95.5 1.3000003 93.6 C 1.8000003 93.1 3.4 92.9 3.7000004 93.2 C 6.1000006 96.299999 8.700001 99.399997 10.5 102.899997 C 11.5 104.6 10.9 106.8 9 108.5 Z " fill="#ffb800"/>
<path transform="matrix(1.4754192,0,0,1.4754192,491.33238,202.75768)" d="M 53 82.7 C 51.6 66.5 51.5 60.899999 49.9 44.699998 C 49.3 38.6 48 32.6 47 26.5 C 46.3 22.4 40 23.3 40 27.5 C 40 32.6 40.2 37.8 40.5 42.9 C 41.2 56.2 40.9 59 42.6 72.2 C 42.699998 72.7 42.699998 73.299999 42.8 74.1 C 43.8 80.1 45.2 85.9 47.399999 87 C 47.6 87.1 47.699998 87.1 47.899999 87.2 C 51.6 88 53.3 86.6 53 82.7 Z " fill="#ffb800"/>
</g>
<clipPath id="cp5">
<path transform="matrix(.6666666,0,0,.6666666,0,0)" d="M 0 0 L 1562.5 0 L 1562.5 1562.5 L 0 1562.5 Z " fill-rule="evenodd"/>
</clipPath>
<g clip-path="url(#cp5)">
<g>
<clipPath id="cp6">
<path transform="matrix(.6666666,0,0,.6666666,266.66667,540.6666)" d="M 0 0 L 867 0 L 867 313 L 0 313 Z " fill-rule="evenodd"/>
</clipPath>
<g clip-path="url(#cp6)">
<g id="Layer-1" data-name="P">
<g id="Layer-2" data-name="NonStruct">
<symbol id="font_7_39">
<path d="M .24853516 0 L .17138672 0 L 0 .49804688 L .09033203 .49804688 L .2084961 .1381836 L .21777344 .10839844 L .21875 .10839844 L .22851563 .13769531 L .34179688 .49804688 L .40625 .49804688 L .5161133 .14404297 L .52734377 .10839844 L .5288086 .10839844 L .5419922 .14550781 L .65771487 .49804688 L .74658206 .49804688 L .5751953 0 L .49609376 0 L .37304688 .37304688 L .3725586 .37304688 L .24853516 0 Z "/>
</symbol>
<symbol id="font_7_21">
<path d="M .24072266 0 C .20654297 0 .17480469 .0066731774 .14550781 .020019532 C .11653646 .033691408 .091145839 .052571615 .06933594 .076660159 C .047526044 .100748699 .030436198 .12874349 .018066407 .16064453 C .0060221354 .19254558 0 .22672527 0 .2631836 C 0 .29964195 .0060221354 .33365885 .018066407 .36523438 C .030436198 .3971354 .047526044 .42513023 .06933594 .44921876 C .091145839 .47330729 .11653646 .49202476 .14550781 .5053711 C .17480469 .51904299 .2063802 .5258789 .24023438 .5258789 C .27018229 .5258789 .2980143 .5209961 .32373048 .51123049 C .34944663 .50146487 .3720703 .48746745 .39160157 .46923829 C .41145835 .45133464 .42692057 .43001304 .43798829 .40527345 L .43798829 .51220706 L .5185547 .51220706 L .5185547 .014160156 L .43798829 .014160156 L .43798829 .12011719 C .42692057 .095703128 .41145835 .07438151 .39160157 .056152345 C .3720703 .0382487 .34944663 .024414063 .32373048 .0146484379 C .2980143 .0048828127 .27034507 0 .24072266 0 M .25927735 .07861328 C .2836914 .07861328 .30647788 .08317057 .32763673 .092285159 C .3491211 .10172526 .36783854 .114746097 .38378907 .13134766 C .3997396 .14827474 .41227214 .16796875 .42138673 .19042969 C .4305013 .21289063 .4350586 .23714192 .4350586 .2631836 C .4350586 .28889976 .4305013 .31282554 .42138673 .33496095 C .41227214 .35742188 .3995768 .37695313 .38330079 .3935547 C .36735026 .41048179 .34879557 .42366538 .32763673 .43310548 C .30647788 .44254557 .28385417 .44726563 .25976563 .44726563 C .23535156 .44726563 .21256511 .44270835 .19140625 .43359376 C .17024739 .4248047 .15152996 .41210938 .1352539 .3955078 C .11897787 .37890626 .106282558 .359375 .09716797 .33691407 C .08805338 .31477867 .083496097 .2902018 .083496097 .2631836 C .083496097 .23551433 .08805338 .21028646 .09716797 .1875 C .10660807 .16503906 .11930338 .14567058 .1352539 .12939453 C .15152996 .11311849 .17024739 .10058594 .19140625 .091796878 C .21289063 .08300781 .23551433 .07861328 .25927735 .07861328 Z "/>
</symbol>
<use xlink:href="#font_7_39" transform="matrix(242.83626,0,0,-242.83626,268.75526,707.53768)" fill="#ffb800"/>
<use xlink:href="#font_7_21" transform="matrix(242.83626,0,0,-242.83626,445.65437,710.97628)" fill="#ffb800"/>
</g>
<g id="Layer-2" data-name="NonStruct">
<symbol id="font_7_1">
<path d="M 0 0 Z "/>
</symbol>
<use xlink:href="#font_7_1" transform="matrix(242.83626,0,0,-242.83626,575.8652,707.53768)" fill="#ffb800"/>
<use xlink:href="#font_7_1" transform="matrix(242.83626,0,0,-242.83626,620.5609,707.53768)" fill="#ffb800"/>
<use xlink:href="#font_7_1" transform="matrix(242.83626,0,0,-242.83626,665.2567,707.53768)" fill="#ffb800"/>
<use xlink:href="#font_7_1" transform="matrix(242.83626,0,0,-242.83626,709.9525,707.53768)" fill="#ffb800"/>
<use xlink:href="#font_7_1" transform="matrix(242.83626,0,0,-242.83626,754.64828,707.53768)" fill="#ffb800"/>
<use xlink:href="#font_7_1" transform="matrix(242.83626,0,0,-242.83626,799.34408,707.53768)" fill="#ffb800"/>
</g>
</g>
</g>
</g>
<g>
<clipPath id="cp8">
<path transform="matrix(.6666666,0,0,.6666666,674,540.6666)" d="M 0 0 L 322 0 L 322 313 L 0 313 Z " fill-rule="evenodd"/>
</clipPath>
<g clip-path="url(#cp8)">
<g id="Layer-1" data-name="P">
<g id="Layer-2" data-name="NonStruct">
<symbol id="font_7_25">
<path d="M .49951173 .27490235 C .49951173 .27067057 .49934898 .26611329 .49902345 .26123048 C .49902345 .2566732 .4986979 .24983724 .49804688 .24072266 L .08496094 .24072266 C .088541667 .20751953 .09830729 .17871094 .11425781 .15429688 C .13020833 .12988281 .15022786 .1110026 .1743164 .09765625 C .19840496 .084635417 .2241211 .078125 .25146485 .078125 C .2849935 .078125 .3136393 .08528646 .33740235 .099609378 C .36116538 .11425781 .37858073 .13557942 .38964845 .16357422 L .48388673 .16357422 C .47672526 .14078777 .46598307 .11946615 .45166017 .099609378 C .43766276 .0797526 .4205729 .06233724 .40039063 .04736328 C .38053385 .032714845 .3580729 .021158854 .3330078 .0126953129 C .30826823 .004231771 .28173829 0 .25341798 0 C .21728516 0 .18375652 .0066731774 .15283203 .020019532 C .12223307 .033691408 .0953776 .052571615 .072265628 .076660159 C .049479169 .100748699 .03173828 .12858074 .019042969 .16015625 C .0063476564 .1920573 0 .22623699 0 .2626953 C 0 .29915367 .0063476564 .33317057 .019042969 .3647461 C .03173828 .39664714 .049479169 .42464195 .072265628 .44873048 C .0953776 .472819 .12223307 .49169923 .15283203 .5053711 C .18375652 .51904299 .21728516 .5258789 .25341798 .5258789 C .28922526 .5258789 .32210288 .51920577 .35205079 .5058594 C .38232423 .49251304 .40836589 .4741211 .43017579 .4506836 C .4523112 .4272461 .46940104 .40039063 .4814453 .3701172 C .4934896 .34016929 .49951173 .308431 .49951173 .27490235 M .08886719 .3149414 L .41357423 .3149414 C .41227214 .33251954 .4070638 .34928385 .39794923 .36523438 C .38916017 .3811849 .3774414 .39518229 .36279298 .40722657 C .34814454 .41959635 .33121745 .42919923 .31201173 .43603517 C .2931315 .44319663 .27311198 .44677735 .25195313 .44677735 C .22721355 .44677735 .20361328 .44173179 .18115235 .43164063 C .1586914 .42154948 .13932292 .40673829 .123046878 .38720704 C .106770839 .36767579 .0953776 .34358726 .08886719 .3149414 Z "/>
</symbol>
<symbol id="font_7_34">
<path d="M .084472659 0 L 0 0 L 0 .49804688 L .08105469 .49804688 L .08105469 .38671876 C .09342448 .42122398 .11263021 .44840495 .13867188 .46826173 C .16503906 .4881185 .19628906 .49804688 .23242188 .49804688 L .28076173 .49804688 L .28076173 .4243164 L .2368164 .4243164 C .20784505 .4243164 .18180339 .41682945 .1586914 .40185548 C .13557942 .3868815 .11735026 .36523438 .104003909 .33691407 C .09098307 .30859376 .084472659 .27441407 .084472659 .234375 L .084472659 0 Z "/>
</symbol>
<use xlink:href="#font_7_25" transform="matrix(242.83626,0,0,-242.83626,683.4039,710.85769)" fill="#ffb800"/>
<use xlink:href="#font_7_34" transform="matrix(242.83626,0,0,-242.83626,816.433,707.53768)" fill="#ffb800"/>
</g>
</g>
</g>
</g>
<path transform="matrix(.000000003636102,2.0833333,-2.0833333,.000000003636102,609.50527,586.6198)" stroke-width="9" stroke-linecap="butt" stroke-miterlimit="4" stroke-linejoin="miter" fill="none" stroke="#ffb800" d="M -.00000000000002842171 4.5 L 58.38464 4.5 "/>
<path transform="matrix(-1.3293177,1.604117,-1.604117,-1.3293177,678.03176,594.6536)" stroke-width="9" stroke-linecap="butt" stroke-miterlimit="4" stroke-linejoin="miter" fill="none" stroke="#ffb800" d="M -.000000000000010658141 4.5 L 54.495618 4.5 "/>
<path transform="matrix(-1.3060511,-1.6231167,1.6231167,-1.3060511,671.8367,708.071)" stroke-width="9" stroke-linecap="butt" stroke-miterlimit="4" stroke-linejoin="miter" fill="none" stroke="#ffb800" d="M -.0000000000000071054277 4.5 L 38.04894 4.5 "/>
</g>
<clipPath id="cp9">
<path transform="matrix(.6666666,0,0,.6666666,0,0)" d="M 0 0 L 1562.5 0 L 1562.5 1562.5 L 0 1562.5 Z "/>
</clipPath>
<g clip-path="url(#cp9)">
<clipPath id="cp10">
<path transform="matrix(.6666666,0,0,.6666666,0,0)" d="M 0 0 L 1562.5 0 L 1562.5 1562.5 L 0 1562.5 Z "/>
</clipPath>
<g clip-path="url(#cp10)">
<clipPath id="cp11">
<path transform="matrix(.6666666,0,0,.6666666,0,0)" d="M 993.07046 873.1564 L 1014.3883 851.8385 L 1036.7055 874.15567 L 1015.3876 895.4735 L 993.07046 873.1564 Z "/>
</clipPath>
<g clip-path="url(#cp11)">
<clipPath id="cp12">
<path transform="matrix(.6666666,0,0,.6666666,0,0)" d="M 1036.6536 874.1038 L 1015.33578 895.4217 L 993.07046 873.1564 L 1036.6536 874.1038 Z "/>
</clipPath>
<g clip-path="url(#cp12)">
<g>
<clipPath id="cp13">
<path transform="matrix(.6666666,0,0,.6666666,661.99996,581.99996)" d="M 0 0 L 44 0 L 44 23 L 0 23 Z "/>
</clipPath>
<g clip-path="url(#cp13)">
<g id="Layer-1" data-name="Div">
<path transform="matrix(.055515257,-.055515257,.055515257,.055515257,662.04696,582.1042)" d="M 0 0 L 256 0 L 256 267 L 0 267 Z " fill="#ffb800"/>
</g>
</g>
</g>
</g>
</g>
</g>
</g>
<clipPath id="cp14">
<path transform="matrix(.6666666,0,0,.6666666,0,0)" d="M 0 0 L 1562.5 0 L 1562.5 1562.5 L 0 1562.5 Z "/>
</clipPath>
<g clip-path="url(#cp14)">
<clipPath id="cp15">
<path transform="matrix(.6666666,0,0,.6666666,0,0)" d="M 0 0 L 1562.5 0 L 1562.5 1562.5 L 0 1562.5 Z "/>
</clipPath>
<g clip-path="url(#cp15)">
<clipPath id="cp16">
<path transform="matrix(.6666666,0,0,.6666666,0,0)" d="M 1049.7988 1062.8117 L 1028.481 1084.1295 L 1006.1638 1061.8124 L 1027.4817 1040.4945 L 1049.7988 1062.8117 Z "/>
</clipPath>
<g clip-path="url(#cp16)">
<clipPath id="cp17">
<path transform="matrix(.6666666,0,0,.6666666,0,0)" d="M 1006.21566 1061.8641 L 1027.5335 1040.5464 L 1049.7988 1062.8117 L 1006.21566 1061.8641 Z "/>
</clipPath>
<g clip-path="url(#cp17)">
<g>
<clipPath id="cp18">
<path transform="matrix(.6666666,0,0,.6666666,670.6666,693.33328)" d="M 0 0 L 44 0 L 44 23 L 0 23 Z "/>
</clipPath>
<g clip-path="url(#cp18)">
<g id="Layer-1" data-name="Div">
<path transform="matrix(-.055515257,.055515257,-.055515257,-.055515257,699.86587,708.541)" d="M 0 0 L 256 0 L 256 267 L 0 267 Z " fill="#ffb800"/>
</g>
</g>
</g>
</g>
</g>
</g>
</g>
<clipPath id="cp19">
<path transform="matrix(.6666666,0,0,.6666666,0,0)" d="M 0 0 L 1562.5 0 L 1562.5 1562.5 L 0 1562.5 Z " fill-rule="evenodd"/>
</clipPath>
<g clip-path="url(#cp19)">
<g>
<clipPath id="cp20">
<path transform="matrix(.6666666,0,0,.6666666,138.66666,540.6666)" d="M 0 0 L 240 0 L 240 313 L 0 313 Z " fill-rule="evenodd"/>
</clipPath>
<g clip-path="url(#cp20)">
<g id="Layer-1" data-name="P">
<g id="Layer-2" data-name="NonStruct">
<symbol id="font_7_2">
<path d="M .64501956 0 L .55322268 0 L .49023438 .15039063 L .15478516 .15039063 L .091796878 0 L 0 0 L .28125 .6640625 L .3642578 .6640625 L .64501956 0 M .31933595 .54248049 L .18554688 .22363281 L .45947267 .22363281 L .3256836 .54248049 L .3232422 .55371096 L .32226563 .55371096 L .31933595 .54248049 Z "/>
</symbol>
<use xlink:href="#font_7_2" transform="matrix(242.83626,0,0,-242.83626,140.34862,707.53768)" fill="#ffb800"/>
</g>
</g>
</g>
</g>
</g>
<clipPath id="cp21">
<path transform="matrix(.6666666,0,0,.6666666,0,0)" d="M 857.39797 818.9753 L 886.14797 818.9753 L 886.14797 859.18759 L 857.39797 859.18759 Z " fill-rule="evenodd"/>
</clipPath>
<g clip-path="url(#cp21)">
<g>
<clipPath id="cp22">
<path transform="matrix(.6666666,0,0,.6666666,571.3333,545.3333)" d="M 0 0 L 30 0 L 30 42 L 0 42 Z " fill-rule="evenodd"/>
</clipPath>
<g clip-path="url(#cp22)">
<g id="Layer-1" data-name="Div">
<path transform="matrix(.07486978,0,0,.07486978,571.5986,545.98348)" d="M 0 0 L 256 0 L 256 358 L 0 358 Z " fill="#ffffff"/>
</g>
</g>
</g>
</g>
<g id="Layer-1" data-name="Image">
<path transform="matrix(2.7777777,0,0,-2.7777777,0,1063.9999)" d="M 176.61409 252.19533 L 243.65418 252.19533 L 243.65418 310.21549 L 176.61409 310.21549 Z " fill-opacity="0"/>
</g>
<g id="Layer-1" data-name="Image">
<path transform="matrix(2.7777777,0,0,-2.7777777,0,1063.9999)" d="M 212.50705 127.9035 L 219.59397 127.9035 L 219.59397 171.69199 L 212.50705 171.69199 Z " fill-opacity="0"/>
</g>
<g id="Layer-1" data-name="Image">
<path transform="matrix(2.7777777,0,0,-2.7777777,0,1063.9999)" d="M 212.69219 137.2217 L 244.22806 137.2217 L 244.22806 173.21392 L 212.69219 173.21392 Z " fill-opacity="0"/>
</g>
<g id="Layer-1" data-name="Image">
<path transform="matrix(2.7777777,0,0,-2.7777777,0,1063.9999)" d="M 223.84145 127.85975 L 247.25263 127.85975 L 247.25263 154.5354 L 223.84145 154.5354 Z " fill-opacity="0"/>
</g>
</g>
</g>
</svg>
