<svg xmlns="http://www.w3.org/2000/svg" xmlns:xlink="http://www.w3.org/1999/xlink" xmlns:inkscape="http://www.inkscape.org/namespaces/inkscape" version="1.1" width="375" height="375" viewBox="0 0 375 375">
<defs>
<clipPath id="clip_0">
<path transform="matrix(.24,0,0,.24,0,0)" d="M0 0H1562.5V1562.5H0Z" clip-rule="evenodd"/>
</clipPath>
<clipPath id="clip_1">
<path transform="matrix(.24,0,0,.24,0,0)" d="M0 0H1562.5V1562.5H0Z" clip-rule="evenodd"/>
</clipPath>
<clipPath id="clip_2">
<path transform="matrix(.24,0,0,.24,0,0)" d="M0 0H1562.5V1562.5H0Z" clip-rule="evenodd"/>
</clipPath>
<path id="font_3_12" d="M.38027955 .3500061H.57421877V0H.030273438V.7001953H.38027955V.3500061Z"/>
<path id="font_3_6" d="M.029296875 .7011719H.609375V.46516419H.46429444V.43460084H.609375V.26660157H.46429444V.236969H.609375V.0009765625H.029296875V.7011719Z"/>
<path id="font_3_2" d="M-.027999878 0 .41400147 .7489929 .8560028 0H-.027999878Z"/>
<path id="font_3_5" d="M.38027955-.0009765625H.030273438V.70002749H.38027955C.42827354 .70002749 .47343446 .690862 .5157623 .6725311 .5581004 .65420028 .59543356 .6290334 .62776187 .59703066 .6601003 .5650279 .68526718 .5276947 .7032623 .48503114 .7212677 .44236756 .7302704 .3970337 .7302704 .34902955 .7302704 .3010254 .7212677 .25585429 .7032623 .21351624 .68526718 .17118836 .6601003 .13385518 .62776187 .10151672 .59543356 .06918844 .5581004 .044021608 .5157623 .026016236 .47343446 .008021037 .42827354-.0009765625 .38027955-.0009765625Z"/>
<clipPath id="clip_4">
<path transform="matrix(.24,0,0,.24,0,0)" d="M735.892 303.43544H1014.017V544.0604H735.892Z" clip-rule="evenodd"/>
</clipPath>
<clipPath id="clip_5">
<path transform="matrix(.24,0,0,.24,0,0)" d="M0 0H1562.5V1562.5H0Z" clip-rule="evenodd"/>
</clipPath>
<clipPath id="clip_6">
<path transform="matrix(.24,0,0,.24,96,193.2)" d="M0 0H867V313H0Z" clip-rule="evenodd"/>
</clipPath>
<path id="font_7_57" d="M.2548828 0H.17773438L.0063476564 .49853517H.09667969L.21484375 .13832093 .2241211 .10850525H.22509766L.23486328 .13783264 .34814454 .49853517H.41259767L.52246096 .1441803 .5336914 .10850525H.53515627L.54833987 .14564514 .6640625 .49853517H.7529297L.58154299 0H.5024414L.37939454 .3734131H.37890626L.2548828 0Z"/>
<path id="font_7_33" d="M.2788086-.0146484379C.2446289-.0146484379 .212972-.007888794 .18383789 .005630493 .15470378 .019159953 .12923177 .037979127 .107421878 .062088014 .08561198 .0861969 .068603519 .114217128 .056396486 .14614868 .044189454 .17808025 .038085939 .21229045 .038085939 .2487793 .038085939 .28526817 .044189454 .31939698 .056396486 .35116578 .068603519 .38293458 .08561198 .4108734 .107421878 .4349823 .12923177 .4590912 .15470378 .47790528 .18383789 .49142457 .212972 .50495406 .24446614 .51171877 .2783203 .51171877 .30826823 .51171877 .33610026 .5068309 .3618164 .49705506 .38753257 .48727928 .41023765 .473348 .42993165 .45526124 .44962565 .43718467 .4650065 .41576133 .47607423 .3909912V.49804688H.5566406V-.00047302247H.47607423V.10557556C.4650065 .08113098 .44962565 .059870405 .42993165 .041793825 .41023765 .023717246 .38753257 .009791057 .3618164 .000015258789 .33610026-.009760539 .308431-.0146484379 .2788086-.0146484379M.29736329 .06404114C.32177735 .06404114 .34464518 .0686849 .3659668 .07797241 .38728843 .087259929 .40592448 .10029093 .421875 .11706543 .43782554 .1338501 .45035807 .15348308 .45947267 .17596436 .46858726 .19844564 .47314454 .22271729 .47314454 .2487793 .47314454 .27451579 .46858726 .2985433 .45947267 .32086183 .45035807 .34318034 .43774415 .36272685 .42163087 .37950135 .40551759 .396286 .3868815 .40940348 .36572267 .41885377 .3445638 .42830406 .3219401 .43302918 .29785157 .43302918 .2734375 .43302918 .25065104 .4285482 .22949219 .41958619 .20833333 .41062419 .18961589 .39783225 .17333985 .38121034 .1570638 .3645986 .14436849 .34513346 .1352539 .32281495 .12613933 .30049644 .12158203 .27581788 .12158203 .2487793 .12158203 .22108968 .1262207 .19592285 .13549805 .17327881 .14477539 .15063477 .1574707 .13116455 .17358399 .114868167 .18969727 .09858195 .20841472 .08603922 .22973633 .07723999 .25105796 .06844076 .27360026 .06404114 .29736329 .06404114Z"/>
<path id="font_7_1" d="M0 0Z"/>
<clipPath id="clip_8">
<path transform="matrix(.24,0,0,.24,242.64,193.2)" d="M0 0H322V313H0Z" clip-rule="evenodd"/>
</clipPath>
<path id="font_7_37" d="M.5371094 .26164247C.5371094 .25742088 .5371094 .25294496 .5371094 .24821472 .5371094 .24349468 .5367839 .23657735 .5361328 .22746277H.123046878C.12662761 .19418843 .13639324 .1653188 .15234375 .14085388 .16829427 .116388957 .1883138 .09754944 .21240235 .08433533 .23649089 .071131389 .26220704 .06452942 .28955079 .06452942 .32307945 .06452942 .35172526 .071787517 .37548829 .08630371 .3992513 .10081991 .41666667 .12210083 .42773438 .15014649H.52197268C.5148112 .12732952 .5041504 .10597738 .48999024 .08609009 .47583009 .066212978 .45874024 .048853559 .4387207 .03401184 .41870118 .019180298 .39624024 .0075276696 .3713379-.0009460449 .34643556-.009429932 .31982423-.013671875 .2915039-.013671875 .2553711-.013671875 .22192383-.0069122316 .19116211 .0066070558 .16040039 .020136515 .13354492 .03895569 .1105957 .063064578 .087646488 .08717346 .06982422 .115112308 .057128908 .1468811 .044433595 .1786499 .038085939 .21277873 .038085939 .24926758 .038085939 .28575645 .04442851 .31988526 .057113649 .35165406 .06979879 .38342286 .08760071 .4113617 .11051941 .43547059 .13344829 .45957948 .16027832 .47847495 .19100952 .49215699 .22174073 .5058492 .25515748 .5126953 .29125978 .5126953 .32702638 .5126953 .35994975 .506017 .3900299 .49266053 .42012025 .47931419 .44613648 .46091715 .4680786 .43746949 .4900309 .41403199 .5070241 .3872528 .5190582 .35713197 .53109237 .3270111 .5371094 .29518128 .5371094 .26164247M.12695313 .3017578H.45166017C.45035807 .31931559 .4452311 .33606468 .4362793 .352005 .42732749 .36795555 .41552735 .3820292 .4008789 .39422608 .38623048 .4064331 .36938478 .41603089 .3503418 .4230194 .33129884 .4300181 .3111979 .43351747 .29003907 .43351747 .26529948 .43351747 .24169922 .4284719 .21923828 .41838075 .19677735 .40829978 .17740886 .39349876 .16113281 .37397767 .14485677 .35446678 .13346355 .33039347 .12695313 .3017578Z"/>
<path id="font_7_52" d="M.16455078 0H.080078128V.4985962H.16113281V.38716126C.17350261 .421697 .19278972 .4489034 .21899414 .46878053 .24519857 .48865763 .2763672 .4985962 .3125 .4985962H.36083985V.4248047H.31689454C.2879232 .4248047 .2618815 .41730754 .23876953 .40231324 .21565755 .3873291 .19750977 .36565653 .18432617 .33729554 .17114258 .3089447 .16455078 .2747294 .16455078 .23464966V0Z"/>
<clipPath id="clip_9">
<path transform="matrix(.24,0,0,.24,0,0)" d="M0 0H1562.5V1562.5H0Z"/>
</clipPath>
<clipPath id="clip_10">
<path transform="matrix(.24,0,0,.24,0,0)" d="M0 0H1562.5V1562.5H0Z"/>
</clipPath>
<clipPath id="clip_11">
<path transform="matrix(.24,0,0,.24,0,0)" d="M993.07046 873.1564 1014.3883 851.8385 1036.7055 874.15567 1015.3876 895.4735 993.07046 873.1564Z"/>
</clipPath>
<clipPath id="clip_12">
<path transform="matrix(.24,0,0,.24,0,0)" d="M1036.6536 874.1038 1015.33578 895.4217 993.07046 873.1564 1036.6536 874.1038Z"/>
</clipPath>
<clipPath id="clip_13">
<path transform="matrix(.24,0,0,.24,238.31999,209.51999)" d="M0 0H44V23H0Z"/>
</clipPath>
<clipPath id="clip_14">
<path transform="matrix(.24,0,0,.24,0,0)" d="M0 0H1562.5V1562.5H0Z"/>
</clipPath>
<clipPath id="clip_15">
<path transform="matrix(.24,0,0,.24,0,0)" d="M0 0H1562.5V1562.5H0Z"/>
</clipPath>
<clipPath id="clip_16">
<path transform="matrix(.24,0,0,.24,0,0)" d="M1049.7988 1056.5617 1028.481 1077.8795 1006.1638 1055.5624 1027.4817 1034.2445 1049.7988 1056.5617Z"/>
</clipPath>
<clipPath id="clip_17">
<path transform="matrix(.24,0,0,.24,0,0)" d="M1006.21566 1055.6141 1027.5335 1034.2964 1049.7988 1056.5617 1006.21566 1055.6141Z"/>
</clipPath>
<clipPath id="clip_18">
<path transform="matrix(.24,0,0,.24,241.43999,248.15999)" d="M0 0H44V23H0Z"/>
</clipPath>
<clipPath id="clip_19">
<path transform="matrix(.24,0,0,.24,0,0)" d="M0 0H1562.5V1562.5H0Z" clip-rule="evenodd"/>
</clipPath>
<clipPath id="clip_20">
<path transform="matrix(.24,0,0,.24,49.92,193.2)" d="M0 0H240V313H0Z" clip-rule="evenodd"/>
</clipPath>
<path id="font_7_2" d="M.6513672 0H.5595703L.49658204 .15039063H.16113281L.09814453 0H.0063476564L.28759767 .6645508H.37060548L.6513672 0M.3256836 .54286196 .19189453 .2237091H.4658203L.33203126 .54286196 .32958985 .55410769H.32861329L.3256836 .54286196Z"/>
<clipPath id="clip_21">
<path transform="matrix(.24,0,0,.24,0,0)" d="M857.39797 818.9753H886.14797V859.18759H857.39797Z" clip-rule="evenodd"/>
</clipPath>
<clipPath id="clip_22">
<path transform="matrix(.24,0,0,.24,205.68,196.31999)" d="M0 0H30V42H0Z" clip-rule="evenodd"/>
</clipPath>
</defs>
<g>
<g clip-path="url(#clip_0)">
<path transform="matrix(.75,0,0,.75,0,0)" d="M0 0H500V500H0Z" fill="#ffffff"/>
</g>
<g clip-path="url(#clip_1)">
<path transform="matrix(.75,0,0,.75,0,0)" d="M0 0H500V500H0Z" fill="#ffffff"/>
</g>
<g clip-path="url(#clip_2)">
<use data-text="L" xlink:href="#font_3_12" transform="matrix(97.229999,0,0,-97.229999,49.053575,205.30754)" fill="#1d57bb"/>
<use data-text="E" xlink:href="#font_3_6" transform="matrix(97.229999,0,0,-97.229999,107.482089,205.30754)" fill="#1d57bb"/>
<use data-text="A" xlink:href="#font_3_2" transform="matrix(97.229999,0,0,-97.229999,169.50769,205.30754)" fill="#1d57bb"/>
<use data-text="D" xlink:href="#font_3_5" transform="matrix(97.229999,0,0,-97.229999,249.71321,205.30754)" fill="#1d57bb"/>
</g>
<g clip-path="url(#clip_4)">
<path transform="matrix(.53115096,0,0,.53115096,176.87966,72.99277)" d="M86.2 19.7C85.299999 43.6 84.399997 46.6 81.5 70.3 80.7 76.600009 79.8 82.8 78.8 89.100009 78.4 91.8 77.200008 92.700008 74.600009 92.50001 72.100009 92.30001 71.200008 91.50001 71.40001 88.50001 72.20001 78.00001 72.70001 67.40001 74.00001 56.90001 76.80001 33.500009 77.30001 30.800009 80.40001 7.5000078 80.600009 6.300008 80.80001 5.0000078 81.00001 3.8000077 81.30001 1.9000075 81.40001-.19999242 84.200008 .0000076293949 86.9 .30000765 86.600009 2.5000077 86.600009 4.2000076 86.700008 8.400007 86.50001 12.500008 86.40001 16.700009 86.3 17.7 86.2 18.7 86.2 19.7Z" fill="#ffb800"/>
<path transform="matrix(.53115096,0,0,.53115096,176.87966,72.99277)" d="M97.5 97.4C94.2 97.4 93.3 96.4 94.6 93.700008 99.2 84.00001 103.799999 74.40001 108.7 64.8 110.1 62.000005 112.1 59.300004 115.899997 59.500005 118.49999 59.600004 119.2 60.300004 118.2 62.700006 114.6 70.700008 110.799999 78.700008 107 86.600009 105.7 89.3 104 91.8 102.4 94.3 101.2 96.2 99.7 97.5 97.5 97.4Z" fill="#ffb800"/>
<path transform="matrix(.53115096,0,0,.53115096,176.87966,72.99277)" d="M27.5 94.4C25.5 97 24.2 97.1 22.8 94.5 17.8 85 12.9 75.5 8.199999 65.8 6.7999989 63.000005 5.8999989 59.800004 8.299999 56.9 9.999999 54.9 10.999999 54.7 12.199999 57 16.399998 64.7 20.5 72.5 24.5 80.4 26 83 27 85.8 28 88.6 28.8 90.7 28.9 92.7 27.5 94.4Z" fill="#ffb800"/>
<path transform="matrix(.53115096,0,0,.53115096,176.87966,72.99277)" d="M110.3 104.7C110 104.399997 109.9 103.799999 110.3 103.5 112.600009 101 114.700008 98.7 117 96.5 118.8 94.7 122.9 94.6 124.9 96.2 125.4 96.6 125.700008 98.299999 125.4 98.6 122.4 101.2 119.5 103.9 116.1 105.9 114.3 107 112.1 106.5 110.3 104.7Z" fill="#ffb800"/>
<path transform="matrix(.53115096,0,0,.53115096,176.87966,72.99277)" d="M9 108.5C8.7 108.8 8.1 108.8 7.8 108.5 5.5 106.1 3.2000004 103.8 1.2000003 101.5-.49999977 99.6-.39999975 95.5 1.3000003 93.6 1.8000003 93.1 3.4 92.9 3.7000004 93.2 6.1000006 96.299999 8.700001 99.399997 10.5 102.899997 11.5 104.6 10.9 106.8 9 108.5Z" fill="#ffb800"/>
<path transform="matrix(.53115096,0,0,.53115096,176.87966,72.99277)" d="M53 82.7C51.6 66.5 51.5 60.899999 49.9 44.699998 49.3 38.6 48 32.6 47 26.5 46.3 22.4 40 23.3 40 27.5 40 32.6 40.2 37.8 40.5 42.9 41.2 56.2 40.9 59 42.6 72.2 42.699998 72.7 42.699998 73.299999 42.8 74.1 43.8 80.1 45.2 85.9 47.399999 87 47.6 87.1 47.699998 87.1 47.899999 87.2 51.6 88 53.3 86.6 53 82.7Z" fill="#ffb800"/>
</g>
<g clip-path="url(#clip_5)">
<g>
<g clip-path="url(#clip_6)">
<use data-text="w" xlink:href="#font_7_57" transform="matrix(87.42106,0,0,-87.42106,96.196979,253.21356)" fill="#ffb800"/>
<use data-text="a" xlink:href="#font_7_33" transform="matrix(87.42106,0,0,-87.42106,157.06339,253.21356)" fill="#ffb800"/>
<use data-text=" " xlink:href="#font_7_1" transform="matrix(87.42106,0,0,-87.42106,207.31147,253.21356)" fill="#ffb800"/>
<use data-text=" " xlink:href="#font_7_1" transform="matrix(87.42106,0,0,-87.42106,223.40195,253.21356)" fill="#ffb800"/>
<use data-text=" " xlink:href="#font_7_1" transform="matrix(87.42106,0,0,-87.42106,239.49243,253.21356)" fill="#ffb800"/>
<use data-text=" " xlink:href="#font_7_1" transform="matrix(87.42106,0,0,-87.42106,255.58292,253.21356)" fill="#ffb800"/>
<use data-text=" " xlink:href="#font_7_1" transform="matrix(87.42106,0,0,-87.42106,271.6734,253.21356)" fill="#ffb800"/>
<use data-text=" " xlink:href="#font_7_1" transform="matrix(87.42106,0,0,-87.42106,287.76387,253.21356)" fill="#ffb800"/>
</g>
</g>
<g>
<g clip-path="url(#clip_8)">
<use data-text="e" xlink:href="#font_7_37" transform="matrix(87.42106,0,0,-87.42106,242.6532,253.21356)" fill="#ffb800"/>
<use data-text="r" xlink:href="#font_7_52" transform="matrix(87.42106,0,0,-87.42106,286.87269,253.21356)" fill="#ffb800"/>
</g>
</g>
<path transform="matrix(.0000000013089968,.75,-.75,.0000000013089968,219.4219,209.68315)" stroke-width="9" stroke-linecap="butt" stroke-miterlimit="4" stroke-linejoin="miter" fill="none" stroke="#ffb800" d="M-.00000000000002842171 4.5H58.38464"/>
<path transform="matrix(-.47855438,.57748219,-.57748219,-.47855438,244.09143,214.07532)" stroke-width="9" stroke-linecap="butt" stroke-miterlimit="4" stroke-linejoin="miter" fill="none" stroke="#ffb800" d="M-.000000000000010658141 4.5H54.495618"/>
<path transform="matrix(-.47017844,-.58432206,.58432206,-.47017844,241.8612,253.40557)" stroke-width="9" stroke-linecap="butt" stroke-miterlimit="4" stroke-linejoin="miter" fill="none" stroke="#ffb800" d="M-.0000000000000071054277 4.5H38.04894"/>
</g>
<g clip-path="url(#clip_9)">
<g clip-path="url(#clip_10)">
<g clip-path="url(#clip_11)">
<g clip-path="url(#clip_12)">
<g>
<g clip-path="url(#clip_13)">
<path transform="matrix(.019985494,-.019985494,.019985494,.019985494,238.3369,209.55753)" d="M0 0H256V267H0Z" fill="#ffb800"/>
</g>
</g>
</g>
</g>
</g>
</g>
<g clip-path="url(#clip_14)">
<g clip-path="url(#clip_15)">
<g clip-path="url(#clip_16)">
<g clip-path="url(#clip_17)">
<g>
<g clip-path="url(#clip_18)">
<path transform="matrix(-.019985494,.019985494,-.019985494,-.019985494,251.9517,253.57479)" d="M0 0H256V267H0Z" fill="#ffb800"/>
</g>
</g>
</g>
</g>
</g>
</g>
<g clip-path="url(#clip_19)">
<g>
<g clip-path="url(#clip_20)">
<use data-text="A" xlink:href="#font_7_2" transform="matrix(87.42106,0,0,-87.42106,49.970586,253.21356)" fill="#ffb800"/>
</g>
</g>
</g>
<g clip-path="url(#clip_21)">
<g>
<g clip-path="url(#clip_22)">
<path transform="matrix(.026953124,0,0,.026953124,205.7755,196.55406)" d="M0 0H256V358H0Z" fill="#ffffff"/>
</g>
</g>
</g>
<path transform="matrix(1,0,0,-1,0,383.03999)" d="M176.61409 252.19533H243.65418V310.21549H176.61409Z" fill-opacity="0"/>
<path transform="matrix(1,0,0,-1,0,383.03999)" d="M212.50705 129.4035H219.59397V173.19199H212.50705Z" fill-opacity="0"/>
<path transform="matrix(1,0,0,-1,0,383.03999)" d="M212.69219 137.2217H244.22806V173.21392H212.69219Z" fill-opacity="0"/>
<path transform="matrix(1,0,0,-1,0,383.03999)" d="M223.84145 129.35976H247.25263V156.03542H223.84145Z" fill-opacity="0"/>
</g>
</svg>
