<svg xmlns="http://www.w3.org/2000/svg" xmlns:xlink="http://www.w3.org/1999/xlink" width="500" height="500" viewBox="0 0 375 375"><clipPath id="a"><path transform="scale(.24)" d="M0 0h1562.5v1562.5H0z" fill-rule="evenodd"/></clipPath><g clip-path="url(#a)"></g><clipPath id="b"><path transform="scale(.24)" d="M0 0h1562.5v1562.5H0z" fill-rule="evenodd"/></clipPath><g clip-path="url(#b)"><clipPath id="c"><path transform="scale(.24)" d="M0 0h1562.5v1562.5H0z" fill-rule="evenodd"/></clipPath><g data-name="H1"><g data-name="NonStruct"><symbol id="d"><path d="M.35.35h.194V0H0v.7h.35V.35z"/></symbol><symbol id="e"><path d="M0 .7h.58V.464H.435v-.03H.58V.266H.435v-.03H.58V0H0v.7z"/></symbol><symbol id="f"><path d="m0 0 .442.749L.884 0H0z"/></symbol><symbol id="g"><path d="M.35 0H0v.701h.35A.348.348 0 0 0 .7.35.346.346 0 0 0 .485.027.34.34 0 0 0 .35 0z"/></symbol><use xlink:href="#d" transform="matrix(97.23 0 0 -97.23 51.97 205.308)" fill="#5170ff"/><use xlink:href="#e" transform="matrix(97.23 0 0 -97.23 110.302 205.21)" fill="#5170ff"/><use xlink:href="#f" transform="matrix(97.23 0 0 -97.23 166.785 205.308)" fill="#5170ff"/><use xlink:href="#g" transform="matrix(97.23 0 0 -97.23 252.63 205.405)" fill="#5170ff"/></g></g><clipPath id="h"><path transform="scale(.24)" d="M857.398 818.975h28.75v37.713h-28.75z" fill-rule="evenodd"/></clipPath><clipPath id="i"><path transform="matrix(.24 0 0 .24 205.68 196.32)" d="M0 0h30v39H0z" fill-rule="evenodd"/></clipPath><g clip-path="url(#i)"><path d="M205.775 196.554h6.9v9.056h-6.9z" fill="#fff" data-name="Div"/></g></g></svg>