<svg xmlns="http://www.w3.org/2000/svg" xmlns:xlink="http://www.w3.org/1999/xlink" version="1.1" width="300" height="50" viewBox="0 0 300 50">
<defs>
<path id="font_30_4" d="M-.020004273 .01499939 .05999756 .04499817 .3350067 .7100067H.3650055L.6499939 .02999878 .69999697 .01499939V0H.58000186C.54533389 0 .5169983 .007832845 .49499513 .023498536 .4730021 .039164228 .45667015 .05966695 .44599916 .085006717L.39500428 .20500183H.15600586L.08999634 .04499817 .16499329 .01499939V0H-.020004273V.01499939M.16600037 .22999573H.3849945L.2749939 .49299623 .16600037 .22999573Z"/>
<path id="font_30_325" d="M.02999878 .47000123-.020004273 .4850006V.5H.09500122C.1303304 .5 .15833028 .49266563 .17900086 .47799684 .19967143 .46332804 .21666973 .44232688 .22999573 .4149933L.33999635 .18499756 .39700318 .33099366 .33000184 .47000123 .27999879 .4850006V.5H.39500428C.43033348 .5 .45832826 .49266563 .47898866 .47799684 .4996592 .46332804 .5166626 .44232688 .5299988 .4149933L.6399994 .18499756 .7449951 .45500184 .66999819 .4850006V.5H.8549957V.4850006L.7749939 .45500184 .58999636-.009994507H.55999758L.41200257 .29800416 .2899933-.009994507H.2599945L.02999878 .47000123Z"/>
<path id="font_30_171" d="M.23500061-.01499939C.17566426-.01499939 .1299947-.0023345948 .09799194 .022994996 .06599935 .04833476 .05000305 .08066813 .05000305 .11999512 .05000305 .1459961 .055669149 .17166646 .06700134 .19700623 .07167053 .20899964 .077672328 .21999614 .085006717 .22999573 .112340297 .2366689 .14200337 .2426707 .17399597 .2480011 .24599712 .26000468 .30966697 .26733909 .3650055 .27000428V.30000306C.3650055 .37399803 .3560028 .4249929 .33799745 .45298768 .32000224 .48099265 .29233805 .49499513 .25500489 .49499513 .24099732 .49499513 .22899373 .4933319 .21899414 .4900055L.20500183 .4850006V.3350067L.19200135 .33200074C.18133037 .33066813 .17232768 .33000184 .16499329 .33000184 .1423289 .33000184 .12416077 .33683268 .11048889 .35049439 .09682719 .36416627 .08999634 .38233439 .08999634 .40499879 .08999634 .43566896 .10549418 .46166993 .13648987 .4830017 .16749573 .5043335 .21366374 .5149994 .2749939 .5149994 .32699586 .5149994 .37183128 .5058339 .40950013 .48750306 .44716899 .46917216 .47583518 .4438375 .49549867 .41149903 .51516219 .37917076 .5249939 .3420054 .5249939 .30000306V.02999878L.5850067 .01499939V0H.49499513C.45499674 0 .42399598 .0123341879 .4019928 .037002565 .39266459 .047002157 .3853353 .05966695 .38000489 .07499695 .3706665 .05833435 .35966493 .04333496 .34700013 .02999878 .31700135 0 .27966819-.01499939 .23500061-.01499939M.2749939 .020004273C.29966227 .020004273 .32199607 .03333537 .34199525 .05999756 .34932963 .069997157 .35699974 .083333339 .3650055 .1000061V.24499512C.33433534 .24499512 .30499778 .24333191 .2769928 .2400055 .2563324 .23733013 .242335 .23566182 .23500061 .23500061 .23166402 .22766622 .22833252 .21766663 .2250061 .20500183 .21833293 .17967224 .21499634 .15467327 .21499634 .13000489 .21499634 .092671718 .22066243 .06500244 .23199463 .04699707 .24332683 .029001872 .2576599 .020004273 .2749939 .020004273Z"/>
<path id="font_30_248" d="M.039993287 .01499939 .1000061 .02999878V.66999819L.039993287 .68499758V.69999697H.16999817C.22999573 .69999697 .2599945 .66999819 .2599945 .6100006V.2599945L.44500733 .45500184 .36999513 .4850006V.5H.55999758V.4850006L.47999574 .45500184 .3650055 .3350067 .55999758 .02999878 .6100006 .01499939V0H.47999574C.44800315 0 .42200218 .0069986979 .4019928 .020996094 .38199363 .035003663 .36299644 .056340536 .34500123 .085006717L.2599945 .22000122V.02999878L.32000733 .01499939V0H.039993287V.01499939Z"/>
<path id="font_30_205" d="M.30999757-.01499939C.22467041-.01499939 .15833538 .0084991459 .11099243 .055496217 .06365967 .102503459 .039993287 .16733806 .039993287 .25 .039993287 .30399577 .05032857 .35099284 .070999149 .3909912 .091669719 .43099977 .120503749 .46166993 .15750122 .4830017 .1944987 .5043335 .23699951 .5149994 .28500367 .5149994 .33299766 .5149994 .37516276 .5059967 .41149903 .48799134 .4478353 .46999613 .47583518 .4458313 .49549867 .41549684 .51516219 .38516236 .5249939 .35166423 .5249939 .31500245 .5249939 .29832969 .5233307 .28399659 .5200043 .27200318L.5149994 .25500489C.48633323 .2490031 .45533244 .2440033 .42199708 .2400055 .3519999 .2300059 .28133647 .2250061 .21000672 .2250061 .21000672 .14766439 .2206726 .09249369 .2420044 .05949402 .26333619 .026494345 .29266868 .009994507 .33000184 .009994507 .3560028 .009994507 .38016764 .016159058 .40249635 .02848816 .4248352 .040827436 .44250489 .05716451 .45550538 .07749939 .46850587 .09783427 .4750061 .1186676 .4750061 .13999939H.5C.5 .1133372 .4919993 .088002528 .47599793 .06399536 .45999656 .03999837 .43766276 .020833334 .40899659 .006500244 .3803304-.007832845 .34733073-.01499939 .30999757-.01499939M.21000672 .25C.2526703 .25 .28733317 .2516683 .31399537 .25500489 .32532756 .2556661 .33733116 .25732932 .3500061 .2599945 .35066734 .2633311 .35233055 .2706655 .35499574 .28199769 .3583323 .29867045 .3600006 .31634013 .3600006 .3350067 .3600006 .39033509 .35266624 .4308319 .33799745 .4564972 .32332865 .48216249 .30566407 .49499513 .28500367 .49499513 .23500569 .49499513 .21000672 .41333009 .21000672 .25Z"/>
<path id="font_30_291" d="M.039993287 .01499939 .1000061 .02999878V.47000123L.039993287 .4850006V.5H.13000489C.16933187 .5 .20033264 .4873352 .2230072 .46200563 .23166402 .452006 .23899333 .43967185 .24499512 .42500306 .25499473 .43967185 .2673289 .45300294 .28199769 .46499635 .31533305 .4916687 .35266624 .5050049 .3939972 .5050049 .42933656 .5050049 .45583598 .49683634 .47349549 .48049928 .49116517 .4641622 .5 .44066368 .5 .41000367 .5 .38733927 .49316407 .36917115 .4794922 .35549928 .46583048 .34183757 .44766746 .3350067 .42500306 .3350067 .41566468 .3350067 .4063314 .335673 .39700318 .33700563L.3849945 .33999635V.47999574C.35099793 .47999574 .32000224 .46666465 .29200746 .44000245 .27867127 .42666627 .26800028 .41333009 .2599945 .3999939V.02999878L.32000733 .01499939V0H.039993287V.01499939Z"/>
</defs>
<use data-text="A" xlink:href="#font_30_4" transform="matrix(35,0,0,-35,10,38)" fill="#3d0905"/>
<use data-text="w" xlink:href="#font_30_325" transform="matrix(35,0,0,-35,50,38)" fill="#3d0905"/>
<use data-text="a" xlink:href="#font_30_171" transform="matrix(35,0,0,-35,90,38)" fill="#3d0905"/>
<use data-text="k" xlink:href="#font_30_248" transform="matrix(35,0,0,-35,125,38)" fill="#3d0905"/>
<use data-text="e" xlink:href="#font_30_205" transform="matrix(35,0,0,-35,165,38)" fill="#3d0905"/>
<use data-text="r" xlink:href="#font_30_291" transform="matrix(35,0,0,-35,210,38)" fill="#3d0905"/>
</svg>