<svg xmlns="http://www.w3.org/2000/svg" xmlns:xlink="http://www.w3.org/1999/xlink" xmlns:inkscape="http://www.inkscape.org/namespaces/inkscape" version="1.1" width="375" height="375" viewBox="0 0 375 375">
<defs>
<clipPath id="clip_64">
<path transform="matrix(.24,0,0,.24,0,0)" d="M0 0H1562.5V1562.5H0Z" clip-rule="evenodd"/>
</clipPath>
<clipPath id="clip_65">
<path transform="matrix(.24,0,0,.24,0,0)" d="M0 0H1562.5V1562.5H0Z" clip-rule="evenodd"/>
</clipPath>
<clipPath id="clip_66">
<path transform="matrix(.24,0,0,.24,0,0)" d="M0 0H1562.5V1562.5H0Z" clip-rule="evenodd"/>
</clipPath>
<clipPath id="clip_67">
<path transform="matrix(.24,0,0,.24,13.92,164.4)" d="M0 0H697V250H0Z" clip-rule="evenodd"/>
</clipPath>
<path id="font_68_12" d="M.38027955 .3500061H.57421877V0H.030273438V.7001953H.38027955V.3500061Z"/>
<path id="font_68_6" d="M.029296875 .7011719H.609375V.46516419H.46429444V.43460084H.609375V.26660157H.46429444V.236969H.609375V.0009765625H.029296875V.7011719Z"/>
<path id="font_68_2" d="M-.027999878 0 .41400147 .7489929 .8560028 0H-.027999878Z"/>
<path id="font_68_5" d="M.38027955-.0009765625H.030273438V.70002749H.38027955C.42827354 .70002749 .47343446 .690862 .5157623 .6725311 .5581004 .65420028 .59543356 .6290334 .62776187 .59703066 .6601003 .5650279 .68526718 .5276947 .7032623 .48503114 .7212677 .44236756 .7302704 .3970337 .7302704 .34902955 .7302704 .3010254 .7212677 .25585429 .7032623 .21351624 .68526718 .17118836 .6601003 .13385518 .62776187 .10151672 .59543356 .06918844 .5581004 .044021608 .5157623 .026016236 .47343446 .008021037 .42827354-.0009765625 .38027955-.0009765625Z"/>
<clipPath id="clip_69">
<path transform="matrix(.24,0,0,.24,177.12,169.44)" d="M0 0H772V215H0Z" clip-rule="evenodd"/>
</clipPath>
<clipPath id="clip_70">
<path transform="matrix(.24,0,0,.24,208.79999,169.44)" d="M0 0H595V215H0Z" clip-rule="evenodd"/>
</clipPath>
<path id="font_71_57" d="M.2548828 0H.17773438L.0063476564 .49853517H.09667969L.21484375 .13832093 .2241211 .10850525H.22509766L.23486328 .13783264 .34814454 .49853517H.41259767L.52246096 .1441803 .5336914 .10850525H.53515627L.54833987 .14564514 .6640625 .49853517H.7529297L.58154299 0H.5024414L.37939454 .3734131H.37890626L.2548828 0Z"/>
<path id="font_71_33" d="M.2788086-.0146484379C.2446289-.0146484379 .212972-.007888794 .18383789 .005630493 .15470378 .019159953 .12923177 .037979127 .107421878 .062088014 .08561198 .0861969 .068603519 .114217128 .056396486 .14614868 .044189454 .17808025 .038085939 .21229045 .038085939 .2487793 .038085939 .28526817 .044189454 .31939698 .056396486 .35116578 .068603519 .38293458 .08561198 .4108734 .107421878 .4349823 .12923177 .4590912 .15470378 .47790528 .18383789 .49142457 .212972 .50495406 .24446614 .51171877 .2783203 .51171877 .30826823 .51171877 .33610026 .5068309 .3618164 .49705506 .38753257 .48727928 .41023765 .473348 .42993165 .45526124 .44962565 .43718467 .4650065 .41576133 .47607423 .3909912V.49804688H.5566406V-.00047302247H.47607423V.10557556C.4650065 .08113098 .44962565 .059870405 .42993165 .041793825 .41023765 .023717246 .38753257 .009791057 .3618164 .000015258789 .33610026-.009760539 .308431-.0146484379 .2788086-.0146484379M.29736329 .06404114C.32177735 .06404114 .34464518 .0686849 .3659668 .07797241 .38728843 .087259929 .40592448 .10029093 .421875 .11706543 .43782554 .1338501 .45035807 .15348308 .45947267 .17596436 .46858726 .19844564 .47314454 .22271729 .47314454 .2487793 .47314454 .27451579 .46858726 .2985433 .45947267 .32086183 .45035807 .34318034 .43774415 .36272685 .42163087 .37950135 .40551759 .396286 .3868815 .40940348 .36572267 .41885377 .3445638 .42830406 .3219401 .43302918 .29785157 .43302918 .2734375 .43302918 .25065104 .4285482 .22949219 .41958619 .20833333 .41062419 .18961589 .39783225 .17333985 .38121034 .1570638 .3645986 .14436849 .34513346 .1352539 .32281495 .12613933 .30049644 .12158203 .27581788 .12158203 .2487793 .12158203 .22108968 .1262207 .19592285 .13549805 .17327881 .14477539 .15063477 .1574707 .13116455 .17358399 .114868167 .18969727 .09858195 .20841472 .08603922 .22973633 .07723999 .25105796 .06844076 .27360026 .06404114 .29736329 .06404114Z"/>
<path id="font_71_1" d="M0 0Z"/>
<clipPath id="clip_72">
<path transform="matrix(.24,0,0,.24,309.12,169.44)" d="M0 0H222V215H0Z" clip-rule="evenodd"/>
</clipPath>
<path id="font_71_37" d="M.5371094 .26164247C.5371094 .25742088 .5371094 .25294496 .5371094 .24821472 .5371094 .24349468 .5367839 .23657735 .5361328 .22746277H.123046878C.12662761 .19418843 .13639324 .1653188 .15234375 .14085388 .16829427 .116388957 .1883138 .09754944 .21240235 .08433533 .23649089 .071131389 .26220704 .06452942 .28955079 .06452942 .32307945 .06452942 .35172526 .071787517 .37548829 .08630371 .3992513 .10081991 .41666667 .12210083 .42773438 .15014649H.52197268C.5148112 .12732952 .5041504 .10597738 .48999024 .08609009 .47583009 .066212978 .45874024 .048853559 .4387207 .03401184 .41870118 .019180298 .39624024 .0075276696 .3713379-.0009460449 .34643556-.009429932 .31982423-.013671875 .2915039-.013671875 .2553711-.013671875 .22192383-.0069122316 .19116211 .0066070558 .16040039 .020136515 .13354492 .03895569 .1105957 .063064578 .087646488 .08717346 .06982422 .115112308 .057128908 .1468811 .044433595 .1786499 .038085939 .21277873 .038085939 .24926758 .038085939 .28575645 .04442851 .31988526 .057113649 .35165406 .06979879 .38342286 .08760071 .4113617 .11051941 .43547059 .13344829 .45957948 .16027832 .47847495 .19100952 .49215699 .22174073 .5058492 .25515748 .5126953 .29125978 .5126953 .32702638 .5126953 .35994975 .506017 .3900299 .49266053 .42012025 .47931419 .44613648 .46091715 .4680786 .43746949 .4900309 .41403199 .5070241 .3872528 .5190582 .35713197 .53109237 .3270111 .5371094 .29518128 .5371094 .26164247M.12695313 .3017578H.45166017C.45035807 .31931559 .4452311 .33606468 .4362793 .352005 .42732749 .36795555 .41552735 .3820292 .4008789 .39422608 .38623048 .4064331 .36938478 .41603089 .3503418 .4230194 .33129884 .4300181 .3111979 .43351747 .29003907 .43351747 .26529948 .43351747 .24169922 .4284719 .21923828 .41838075 .19677735 .40829978 .17740886 .39349876 .16113281 .37397767 .14485677 .35446678 .13346355 .33039347 .12695313 .3017578Z"/>
<path id="font_71_52" d="M.16455078 0H.080078128V.4985962H.16113281V.38716126C.17350261 .421697 .19278972 .4489034 .21899414 .46878053 .24519857 .48865763 .2763672 .4985962 .3125 .4985962H.36083985V.4248047H.31689454C.2879232 .4248047 .2618815 .41730754 .23876953 .40231324 .21565755 .3873291 .19750977 .36565653 .18432617 .33729554 .17114258 .3089447 .16455078 .2747294 .16455078 .23464966V0Z"/>
<clipPath id="clip_73">
<path transform="matrix(.24,0,0,.24,177.12,169.44)" d="M541.3065 46.809755 555.91098 32.205308 571.2 47.49434 556.5956 62.098787 541.3065 46.809755Z"/>
</clipPath>
<clipPath id="clip_74">
<path transform="matrix(.24,0,0,.24,177.12,169.44)" d="M571.1645 47.45884 556.56008 62.06329 541.3065 46.809755 571.1645 47.45884Z"/>
</clipPath>
<clipPath id="clip_75">
<path transform="matrix(.24,0,0,.24,306.96,180.48)" d="M0 0H31V17H0Z"/>
</clipPath>
<clipPath id="clip_76">
<path transform="matrix(.24,0,0,.24,177.12,169.44)" d="M577.52127 172.44269 562.9168 187.04714 547.62777 171.7581 562.2322 157.15366 577.52127 172.44269Z"/>
</clipPath>
<clipPath id="clip_77">
<path transform="matrix(.24,0,0,.24,177.12,169.44)" d="M547.66329 171.7936 562.2677 157.18915 577.52127 172.44269 547.66329 171.7936Z"/>
</clipPath>
<clipPath id="clip_78">
<path transform="matrix(.24,0,0,.24,308.4,207.12)" d="M0 0H31V16H0Z"/>
</clipPath>
<clipPath id="clip_79">
<path transform="matrix(.24,0,0,.24,177.12,169.44)" d="M0 0H166V215H0Z"/>
</clipPath>
<path id="font_71_2" d="M.6513672 0H.5595703L.49658204 .15039063H.16113281L.09814453 0H.0063476564L.28759767 .6645508H.37060548L.6513672 0M.3256836 .54286196 .19189453 .2237091H.4658203L.33203126 .54286196 .32958985 .55410769H.32861329L.3256836 .54286196Z"/>
</defs>
<g>
<g clip-path="url(#clip_64)">
<path transform="matrix(.75,0,0,.75,0,0)" d="M0 0H500V500H0Z" fill="none"/>
</g>
<g clip-path="url(#clip_65)">
<path transform="matrix(.75,0,0,.75,0,0)" d="M0 0H500V500H0Z" fill="none"/>
</g>
<g clip-path="url(#clip_66)">
<g>
<g clip-path="url(#clip_67)">
<use data-text="L" xlink:href="#font_68_12" transform="matrix(59.147638,0,0,-59.147638,14.152138,209.19828)" fill="#3855d8"/>
<use data-text="E" xlink:href="#font_68_6" transform="matrix(59.147638,0,0,-59.147638,49.695779,209.19828)" fill="#3855d8"/>
<use data-text="A" xlink:href="#font_68_2" transform="matrix(59.147638,0,0,-59.147638,87.42763,209.19828)" fill="#3855d8"/>
<use data-text="D" xlink:href="#font_68_5" transform="matrix(59.147638,0,0,-59.147638,136.21881,209.19828)" fill="#3855d8"/>
</g>
</g>
<g>
<g clip-path="url(#clip_69)">
<g>
<g clip-path="url(#clip_70)">
<use data-text="w" xlink:href="#font_71_57" transform="matrix(59.89045,0,0,-59.89045,209.02059,210.57878)" fill="#ffb800"/>
<use data-text="a" xlink:href="#font_71_33" transform="matrix(59.89045,0,0,-59.89045,250.71897,210.57878)" fill="#ffb800"/>
<use data-text=" " xlink:href="#font_71_1" transform="matrix(59.89045,0,0,-59.89045,285.14295,210.57878)" fill="#ffb800"/>
<use data-text=" " xlink:href="#font_71_1" transform="matrix(59.89045,0,0,-59.89045,296.1662,210.57878)" fill="#ffb800"/>
<use data-text=" " xlink:href="#font_71_1" transform="matrix(59.89045,0,0,-59.89045,307.18949,210.57878)" fill="#ffb800"/>
<use data-text=" " xlink:href="#font_71_1" transform="matrix(59.89045,0,0,-59.89045,318.21278,210.57878)" fill="#ffb800"/>
<use data-text=" " xlink:href="#font_71_1" transform="matrix(59.89045,0,0,-59.89045,329.23603,210.57878)" fill="#ffb800"/>
<use data-text=" " xlink:href="#font_71_1" transform="matrix(59.89045,0,0,-59.89045,340.2593,210.57878)" fill="#ffb800"/>
</g>
</g>
<g>
<g clip-path="url(#clip_72)">
<use data-text="e" xlink:href="#font_71_37" transform="matrix(59.89045,0,0,-59.89045,309.3549,210.57878)" fill="#ffb800"/>
<use data-text="r" xlink:href="#font_71_52" transform="matrix(59.89045,0,0,-59.89045,339.6488,210.57878)" fill="#ffb800"/>
</g>
</g>
<path transform="matrix(.000000000896768,.5138102,-.5138102,.000000000896768,293.43955,180.75696)" stroke-width="9" stroke-linecap="butt" stroke-miterlimit="4" stroke-linejoin="miter" fill="none" stroke="#ffb800" d="M0 4.5H58.38464"/>
<path transform="matrix(-.34471438,.38101573,-.38101573,-.34471438,310.8921,183.94402)" stroke-width="9" stroke-linecap="butt" stroke-miterlimit="4" stroke-linejoin="miter" fill="none" stroke="#ffb800" d="M-.0000000000000035527138 4.5H53.61791"/>
<path transform="matrix(-.32210998,-.40030755,.40030755,-.32210998,308.81233,210.71033)" stroke-width="9" stroke-linecap="butt" stroke-miterlimit="4" stroke-linejoin="miter" fill="none" stroke="#ffb800" d="M.000000000000010658141 4.5H38.04894"/>
<g clip-path="url(#clip_73)">
<g clip-path="url(#clip_74)">
<g>
<g clip-path="url(#clip_75)">
<path transform="matrix(.01369167,-.01369167,.01369167,.01369167,307.03358,180.67433)" d="M0 0H256V267H0Z" fill="#ffb800"/>
</g>
</g>
</g>
</g>
<g clip-path="url(#clip_76)">
<g clip-path="url(#clip_77)">
<g>
<g clip-path="url(#clip_78)">
<path transform="matrix(-.01369167,.01369167,-.01369167,-.01369167,315.7251,210.82624)" d="M0 0H256V267H0Z" fill="#ffb800"/>
</g>
</g>
</g>
</g>
<g>
<g clip-path="url(#clip_79)">
<use data-text="A" xlink:href="#font_71_2" transform="matrix(59.89045,0,0,-59.89045,177.35179,210.57878)" fill="#ffb800"/>
</g>
</g>
</g>
</g>
</g>
<path transform="matrix(1,0,0,-1,0,383.03999)" d="M288.81776 172.28688H293.44206V202.2855H288.81776Z" fill-opacity="0"/>
<path transform="matrix(1,0,0,-1,0,383.03999)" d="M288.98377 178.66834H310.89579V202.20003H288.98377Z" fill-opacity="0"/>
<path transform="matrix(1,0,0,-1,0,383.03999)" d="M296.55723 172.32927H312.41593V190.45954H296.55723Z" fill-opacity="0"/>
</g>
</svg>
