<svg xmlns="http://www.w3.org/2000/svg" width="500" height="500" viewBox="0 0 375 375"><clipPath id="a"><path transform="scale(.24)" d="M0 0h1562.5v1562.5H0z" fill-rule="evenodd"/></clipPath><g clip-path="url(#a)"></g><clipPath id="b"><path transform="scale(.24)" d="M0 0h1562.5v1562.5H0z" fill-rule="evenodd"/></clipPath><g clip-path="url(#b)"><clipPath id="c"><path transform="scale(.24)" d="M735.892 303.435h278.125V544.06H735.892z" fill-rule="evenodd"/></clipPath><path d="M222.665 83.456c-.478 12.695-.956 14.288-2.497 26.877-.424 3.346-.902 6.64-1.434 9.985-.212 1.434-.85 1.912-2.23 1.806-1.328-.106-1.806-.53-1.7-2.124.425-5.577.69-11.208 1.38-16.785 1.488-12.429 1.754-13.863 3.4-26.239.106-.637.213-1.327.319-1.965.16-1.009.212-2.124 1.7-2.018 1.434.16 1.274 1.328 1.274 2.23.053 2.231-.053 4.41-.106 6.64-.053.531-.106 1.062-.106 1.593zM228.667 124.727c-1.753 0-2.231-.531-1.54-1.965 2.443-5.153 4.886-10.252 7.489-15.35.743-1.488 1.806-2.922 3.824-2.816 1.381.053 1.753.425 1.222 1.7-1.912 4.25-3.93 8.498-5.95 12.694-.69 1.435-1.593 2.762-2.442 4.09-.638 1.01-1.435 1.7-2.603 1.647zM191.486 123.133c-1.062 1.381-1.752 1.435-2.496.054-2.656-5.046-5.258-10.092-7.755-15.244-.744-1.488-1.222-3.187.053-4.728.903-1.062 1.434-1.168 2.072.053a458.14 458.14 0 0 1 6.533 12.43c.797 1.38 1.328 2.868 1.859 4.355.425 1.115.478 2.177-.266 3.08zM235.466 128.604c-.16-.16-.213-.478 0-.637 1.221-1.328 2.337-2.55 3.558-3.718.956-.956 3.134-1.01 4.196-.16.266.213.425 1.116.266 1.275-1.593 1.381-3.134 2.815-4.94 3.878-.956.584-2.124.318-3.08-.638zM181.66 130.623a.485.485 0 0 1-.637 0c-1.222-1.275-2.444-2.497-3.506-3.718-.903-1.01-.85-3.187.053-4.197.266-.265 1.116-.371 1.275-.212 1.275 1.647 2.656 3.293 3.612 5.152.53.903.212 2.072-.797 2.975zM205.03 116.919c-.743-8.605-.796-11.58-1.646-20.184-.319-3.24-1.01-6.427-1.54-9.667-.372-2.177-3.718-1.7-3.718.531 0 2.71.106 5.471.265 8.18.372 7.064.213 8.552 1.116 15.563.053.265.053.584.106 1.01.531 3.186 1.275 6.267 2.443 6.85.106.054.16.054.266.107 1.965.425 2.868-.319 2.709-2.39z" fill="#ffb800"/></g><path d="M176.614 130.845h67.04v-58.02h-67.04z" fill="none" data-name="Image"/></svg>